<?xml version="1.0" encoding="UTF-8"?>
<svg xmlns="http://www.w3.org/2000/svg" xmlns:xlink="http://www.w3.org/1999/xlink" width="256px" height="128px" viewBox="0 0 256 128" version="1.1">
<g id="surface1">
<path style=" stroke:none;fill-rule:nonzero;fill:rgb(87.843137%,79.607843%,43.137255%);fill-opacity:1;" d="M 147.332031 128.117188 C 98.222656 128.117188 49.179688 128.117188 0.132812 128.117188 C 0.132812 85.453125 0.132812 42.785156 0.132812 0.117188 C 85.464844 0.117188 170.800781 0.117188 256.132812 0.117188 C 256.132812 42.785156 256.132812 85.453125 256.132812 128.117188 C 219.890625 128.117188 183.644531 128.117188 147.332031 128.117188 M 191.609375 68.058594 C 191.453125 68.320312 191.398438 68.503906 191.832031 68.625 C 192.414062 68.785156 193.015625 68.527344 193.335938 67.949219 C 194.109375 66.53125 194.902344 65.125 195.703125 63.71875 C 195.796875 63.554688 195.964844 63.34375 196.132812 63.316406 C 196.664062 63.222656 197.214844 63.210938 197.757812 63.152344 C 198.140625 63.109375 198.523438 63.039062 198.90625 62.984375 C 199.027344 62.96875 199.15625 62.953125 199.28125 62.953125 C 200.191406 62.945312 201.101562 62.945312 202.015625 62.941406 C 202.859375 62.933594 203.707031 62.953125 204.550781 62.917969 C 205.109375 62.890625 205.804688 63.347656 206.226562 62.394531 C 207.597656 64.554688 208.675781 66.660156 209.699219 68.980469 C 210.148438 68.605469 210.527344 68.238281 210.957031 67.933594 C 211.320312 67.675781 211.417969 67.417969 211.125 67.09375 C 210.3125 66.195312 209.832031 65.074219 208.773438 64.34375 C 208.710938 64.300781 208.644531 64.207031 208.660156 64.152344 C 208.777344 63.6875 208.503906 63.347656 208.253906 62.976562 C 207.570312 61.964844 206.925781 60.933594 206.261719 59.90625 C 205.828125 59.242188 205.394531 58.578125 204.960938 57.910156 C 204.929688 57.859375 204.949219 57.789062 204.921875 57.738281 C 204.542969 56.960938 204.164062 56.1875 203.703125 55.257812 C 203.660156 54.058594 202.40625 53.140625 201.925781 51.871094 C 201.65625 51.988281 201.433594 52.042969 201.277344 52.164062 C 200.960938 52.402344 200.707031 52.714844 200.371094 52.929688 C 200.027344 53.148438 200.003906 53.410156 200.023438 53.738281 C 200.03125 53.875 199.921875 54.132812 199.835938 54.140625 C 199.289062 54.207031 199.296875 54.578125 199.226562 54.914062 C 199.175781 55.140625 199.175781 55.386719 199.074219 55.59375 C 198.464844 56.816406 197.820312 58.027344 197.214844 59.25 C 196.953125 59.785156 196.816406 60.378906 196.503906 60.886719 C 195.78125 62.058594 194.863281 63.144531 194.25 64.355469 C 193.683594 65.480469 192.804688 66.390625 192.082031 67.410156 C 191.996094 67.53125 191.765625 67.578125 191.554688 67.59375 C 191.128906 67.5625 190.574219 67.679688 190.292969 67.484375 C 189.238281 66.753906 187.886719 66.386719 187.152344 65.242188 C 186.527344 64.265625 185.378906 63.648438 184.660156 62.683594 C 184.046875 61.859375 183.042969 61.292969 182.417969 60.441406 C 182.375 60.378906 182.15625 60.414062 182.019531 60.410156 C 181.886719 60.40625 181.753906 60.410156 181.683594 60.410156 C 181.738281 60.082031 181.785156 59.804688 181.816406 59.628906 C 182.796875 58.960938 184.027344 59.089844 185.0625 58.441406 C 186.058594 57.824219 186.789062 57.015625 187.683594 56.335938 C 187.828125 56.226562 187.839844 55.980469 187.914062 55.796875 C 187.945312 55.722656 187.949219 55.613281 188.007812 55.578125 C 188.816406 55.109375 188.472656 53.621094 187.664062 53.332031 C 186.339844 52.855469 184.976562 52.59375 183.582031 52.519531 C 182.089844 52.445312 180.585938 52.507812 179.089844 52.507812 C 178.960938 52.507812 178.832031 52.484375 178.703125 52.460938 C 177.464844 52.25 176.285156 52.46875 175.140625 52.871094 C 175.054688 52.898438 174.996094 53.230469 175.027344 53.246094 C 175.75 53.582031 175.847656 54.085938 175.609375 54.714844 C 175.566406 54.828125 175.660156 54.976562 175.675781 55.113281 C 175.742188 55.808594 175.796875 56.507812 175.871094 57.203125 C 175.921875 57.667969 175.808594 58.292969 176.101562 58.558594 C 176.660156 59.070312 176.242188 59.195312 175.941406 59.378906 C 175.941406 60.394531 175.992188 61.367188 175.921875 62.328125 C 175.871094 63.054688 175.859375 63.726562 176.351562 64.359375 C 176.429688 64.460938 176.238281 64.746094 176.144531 64.9375 C 176.085938 65.054688 175.914062 65.148438 175.902344 65.265625 C 175.835938 65.917969 175.824219 66.574219 175.753906 67.222656 C 175.730469 67.472656 175.597656 67.710938 175.515625 67.953125 C 175.453125 68.144531 175.386719 68.339844 175.324219 68.535156 C 175.371094 68.574219 175.414062 68.613281 175.460938 68.652344 C 175.652344 68.570312 175.851562 68.496094 176.042969 68.402344 C 176.289062 68.285156 176.515625 68.09375 176.777344 68.042969 C 177.75 67.859375 178.082031 67.457031 177.996094 66.621094 C 177.875 65.523438 177.785156 64.417969 177.746094 63.3125 C 177.722656 62.652344 177.941406 61.96875 177.828125 61.328125 C 177.738281 60.832031 177.824219 60.46875 178.101562 60.019531 C 179.523438 60.992188 180.898438 61.929688 182.273438 62.867188 C 182.4375 62.988281 182.5 63.253906 182.675781 63.425781 C 183.1875 63.925781 183.699219 64.441406 184.292969 64.867188 C 185.199219 65.511719 186.128906 66.085938 186.679688 67.078125 C 186.972656 67.605469 187.671875 67.96875 188.222656 68.367188 C 188.417969 68.511719 188.75 68.648438 188.972656 68.601562 C 189.863281 68.429688 190.734375 68.183594 191.609375 68.058594 M 121.742188 45.972656 C 118.054688 45.96875 114.367188 45.976562 110.679688 45.957031 C 110.242188 45.953125 110 46.101562 109.769531 46.386719 C 108.585938 47.878906 107.390625 49.367188 106.203125 50.855469 C 105.609375 51.597656 104.988281 52.320312 104.441406 53.085938 C 103.859375 53.898438 104.128906 54.734375 104.800781 55.28125 C 105.585938 55.917969 106.167969 55.980469 107.167969 55.515625 C 107.980469 55.136719 108.742188 54.667969 109.542969 54.269531 C 110.164062 53.960938 110.78125 53.609375 111.449219 53.433594 C 112.023438 53.285156 112.667969 53.339844 113.28125 53.335938 C 114.792969 53.328125 116.304688 53.335938 117.816406 53.339844 C 118.273438 53.339844 118.730469 53.339844 119.207031 53.339844 C 119.207031 53.695312 119.210938 53.96875 119.207031 54.246094 C 119.125 60.316406 119.035156 66.386719 118.96875 72.460938 C 118.957031 73.808594 119.058594 75.164062 119.050781 76.515625 C 119.023438 82.113281 118.976562 87.714844 118.929688 93.316406 C 118.898438 97.34375 118.847656 101.375 118.835938 105.402344 C 118.835938 105.675781 118.996094 106.011719 119.210938 106.207031 C 120.535156 107.433594 121.898438 108.621094 123.246094 109.828125 C 124.53125 110.972656 125.8125 112.121094 127.101562 113.273438 C 127.222656 113.179688 127.3125 113.121094 127.390625 113.050781 C 130.097656 110.652344 132.8125 108.261719 135.496094 105.847656 C 135.707031 105.65625 135.804688 105.292969 135.804688 105.011719 C 135.832031 88.027344 135.84375 71.046875 135.859375 54.066406 C 135.859375 53.839844 135.859375 53.609375 135.859375 53.347656 C 138.191406 53.347656 140.429688 53.359375 142.667969 53.335938 C 143.359375 53.332031 143.957031 53.457031 144.578125 53.746094 C 146.167969 54.484375 147.78125 55.179688 149.417969 55.824219 C 150.199219 56.128906 151.160156 55.746094 151.660156 55.082031 C 152.136719 54.445312 152.136719 53.628906 151.585938 53.054688 C 149.4375 50.808594 147.28125 48.566406 145.101562 46.34375 C 144.90625 46.144531 144.511719 45.996094 144.210938 45.996094 C 140.746094 45.96875 137.277344 45.976562 133.8125 45.976562 C 133.578125 45.976562 133.34375 45.976562 133.101562 45.976562 C 133.089844 45.816406 133.078125 45.738281 133.078125 45.664062 C 133.078125 39.894531 133.074219 34.128906 133.097656 28.359375 C 133.097656 28.121094 133.261719 27.835938 133.449219 27.65625 C 134.242188 26.886719 135.097656 26.164062 135.890625 25.394531 C 136.953125 24.363281 136.960938 22.769531 135.875 21.769531 C 133.839844 19.898438 131.765625 18.054688 129.703125 16.203125 C 128.15625 14.820312 126.027344 14.875 124.542969 16.265625 C 122.695312 17.996094 120.785156 19.683594 118.84375 21.335938 C 117.394531 22.566406 117.324219 24.621094 118.867188 25.851562 C 119.859375 26.644531 120.769531 27.511719 121.695312 28.363281 C 121.859375 28.515625 121.992188 28.761719 121.992188 28.964844 C 121.984375 30.238281 121.917969 31.511719 121.910156 32.785156 C 121.886719 35.59375 121.867188 38.402344 121.875 41.210938 C 121.878906 42.761719 121.941406 44.3125 121.929688 45.882812 C 121.898438 45.902344 121.875 45.925781 121.742188 45.972656 M 90.984375 62.199219 C 91.074219 61.894531 91.167969 61.585938 91.304688 61.128906 C 91.996094 60.984375 92.183594 60.394531 92.15625 59.625 C 92.136719 59.1875 92.339844 58.742188 91.902344 58.375 C 91.863281 58.34375 91.84375 58.25 91.867188 58.210938 C 92.277344 57.480469 91.488281 56.996094 91.234375 56.507812 C 90.933594 55.9375 89.984375 55.613281 89.273438 55.238281 C 88.890625 55.035156 88.257812 55.070312 88.027344 54.800781 C 87.46875 54.152344 86.800781 54.175781 86.011719 54.304688 C 85.964844 53.605469 85.332031 53.5625 84.800781 53.460938 C 83.75 53.253906 82.695312 53.058594 81.636719 52.917969 C 80.382812 52.746094 79.117188 52.636719 77.855469 52.503906 C 77.621094 52.476562 77.375 52.472656 77.144531 52.414062 C 75.671875 52.0625 74.28125 52.628906 72.847656 52.707031 C 72.738281 52.710938 72.640625 52.867188 72.539062 52.953125 C 72.636719 53.039062 72.714844 53.15625 72.832031 53.203125 C 73.515625 53.488281 73.785156 54.117188 73.5 54.761719 C 73.433594 54.90625 73.34375 55.066406 73.363281 55.207031 C 73.472656 56.023438 73.613281 56.839844 73.738281 57.65625 C 73.800781 58.082031 73.699219 58.617188 73.953125 58.898438 C 74.304688 59.28125 74.058594 59.503906 73.992188 59.820312 C 73.925781 60.117188 73.988281 60.441406 74.019531 60.75 C 74.039062 60.953125 74.132812 61.152344 74.128906 61.351562 C 74.125 61.621094 74.007812 61.894531 74.027344 62.160156 C 74.070312 62.796875 74.234375 63.4375 74.214844 64.074219 C 74.1875 64.820312 73.984375 65.5625 73.910156 66.3125 C 73.800781 67.382812 73.722656 67.480469 72.511719 67.820312 C 72.371094 67.859375 72.265625 67.996094 72.085938 68.132812 C 72.609375 68.265625 73 68.4375 73.394531 68.449219 C 74.066406 68.472656 74.691406 68.550781 75.414062 68.230469 C 76.046875 67.945312 77 68.226562 77.8125 68.269531 C 77.976562 68.277344 78.148438 68.398438 78.296875 68.375 C 79.179688 68.230469 80.058594 68.058594 80.9375 67.890625 C 81.253906 67.828125 81.566406 67.757812 81.878906 67.671875 C 82.371094 67.535156 82.894531 67.441406 83.347656 67.230469 C 84.539062 66.679688 85.699219 66.074219 86.863281 65.484375 C 87.257812 65.285156 87.664062 65.089844 88.007812 64.832031 C 88.925781 64.152344 89.503906 63.152344 90.609375 62.640625 C 90.75 62.574219 90.824219 62.398438 90.984375 62.199219 M 59.160156 61.148438 C 59.332031 61.253906 59.550781 61.328125 59.660156 61.46875 C 60.175781 62.121094 60.882812 62.511719 61.632812 62.730469 C 61.773438 63 61.839844 63.257812 62.015625 63.429688 C 62.527344 63.933594 63.035156 64.453125 63.632812 64.867188 C 64.570312 65.519531 65.457031 66.148438 66.050781 67.128906 C 66.417969 67.734375 67.234375 68.121094 67.851562 68.601562 C 67.878906 68.625 67.9375 68.621094 67.980469 68.621094 C 69.101562 68.605469 70.136719 68.355469 71.050781 67.691406 C 70.808594 67.59375 70.570312 67.5625 70.328125 67.542969 C 70.089844 67.527344 69.769531 67.609375 69.625 67.5 C 68.601562 66.730469 67.265625 66.363281 66.484375 65.253906 C 65.761719 64.222656 64.59375 63.480469 63.78125 62.46875 C 63.199219 61.738281 62.28125 61.25 61.761719 60.449219 C 61.71875 60.386719 61.5 60.40625 61.363281 60.40625 C 61.230469 60.402344 61.09375 60.417969 60.996094 60.425781 C 61.0625 60.097656 61.121094 59.816406 61.171875 59.5625 C 62.136719 59.011719 63.339844 59.074219 64.378906 58.449219 C 65.390625 57.84375 66.113281 57.027344 67.003906 56.347656 C 67.15625 56.230469 67.15625 55.960938 67.230469 55.761719 C 67.253906 55.695312 67.269531 55.621094 67.320312 55.578125 C 68.15625 54.851562 67.925781 53.746094 66.882812 53.320312 C 65.4375 52.730469 63.902344 52.546875 62.339844 52.511719 C 60.976562 52.476562 59.597656 52.628906 58.257812 52.480469 C 56.984375 52.335938 55.800781 52.453125 54.621094 52.808594 C 54.492188 52.847656 54.285156 52.964844 54.292969 53.023438 C 54.3125 53.152344 54.417969 53.308594 54.542969 53.378906 C 54.996094 53.652344 55.191406 53.972656 54.972656 54.457031 C 54.914062 54.59375 54.917969 54.769531 54.9375 54.921875 C 55.039062 55.730469 55.339844 56.511719 55.21875 57.355469 C 55.164062 57.746094 55.160156 58.304688 55.417969 58.539062 C 55.96875 59.03125 55.640625 59.210938 55.257812 59.398438 C 55.257812 60.421875 55.28125 61.390625 55.246094 62.359375 C 55.222656 63.113281 55.164062 63.851562 55.859375 64.550781 C 55.6875 64.710938 55.484375 64.902344 55.3125 65.0625 C 55.140625 66.226562 54.96875 67.390625 54.789062 68.617188 C 54.921875 68.585938 55.105469 68.558594 55.261719 68.492188 C 55.648438 68.328125 56.007812 68.109375 56.40625 67.980469 C 57.160156 67.730469 57.398438 67.371094 57.328125 66.636719 C 57.214844 65.496094 57.121094 64.355469 57.078125 63.210938 C 57.054688 62.589844 57.167969 61.964844 57.199219 61.339844 C 57.222656 60.921875 57.21875 60.503906 57.226562 59.9375 C 57.984375 60.414062 58.53125 60.757812 59.160156 61.148438 M 50.371094 64.535156 C 50.199219 64.40625 49.855469 64.238281 49.878906 64.148438 C 50.03125 63.609375 49.625 63.261719 49.394531 62.867188 C 48.847656 61.9375 48.269531 61.019531 47.679688 60.113281 C 47.191406 59.367188 46.664062 58.636719 46.160156 57.898438 C 46.128906 57.851562 46.148438 57.777344 46.121094 57.726562 C 45.753906 56.964844 45.382812 56.207031 45.011719 55.449219 C 44.875 55.246094 44.882812 54.964844 44.761719 54.738281 C 44.242188 53.796875 43.683594 52.871094 43.101562 51.871094 C 42.859375 51.996094 42.621094 52.082031 42.429688 52.222656 C 42.160156 52.421875 41.949219 52.683594 41.671875 52.871094 C 41.328125 53.101562 41.148438 53.351562 41.226562 53.753906 C 41.25 53.875 41.109375 54.136719 41.019531 54.144531 C 40.484375 54.1875 40.527344 54.574219 40.433594 54.871094 C 40.367188 55.074219 40.398438 55.308594 40.308594 55.496094 C 39.90625 56.347656 39.480469 57.191406 39.050781 58.035156 C 38.777344 58.570312 38.460938 59.085938 38.207031 59.628906 C 38.019531 60.027344 37.96875 60.484375 37.738281 60.859375 C 36.929688 62.179688 36.066406 63.480469 35.226562 64.789062 C 34.960938 65.203125 34.734375 65.644531 34.4375 66.039062 C 33.910156 66.746094 33.335938 67.425781 32.792969 68.121094 C 32.589844 68.382812 32.683594 68.523438 33.035156 68.625 C 33.613281 68.792969 34.21875 68.527344 34.535156 67.945312 C 35.3125 66.527344 36.105469 65.121094 36.90625 63.714844 C 37 63.554688 37.167969 63.34375 37.335938 63.3125 C 37.871094 63.21875 38.421875 63.210938 38.960938 63.152344 C 39.347656 63.109375 39.726562 63.035156 40.109375 62.980469 C 40.234375 62.964844 40.359375 62.957031 40.484375 62.957031 C 41.375 62.953125 42.265625 62.957031 43.15625 62.949219 C 44.003906 62.945312 44.847656 62.960938 45.691406 62.910156 C 46.269531 62.878906 46.988281 63.367188 47.378906 62.515625 C 47.550781 62.683594 47.75 62.789062 47.785156 62.929688 C 47.957031 63.609375 48.519531 64.105469 48.777344 64.777344 C 49.308594 66.160156 50.195312 67.4375 50.960938 68.796875 C 51.035156 68.773438 51.308594 68.746094 51.5 68.613281 C 51.71875 68.460938 51.816406 68.164062 52.039062 68.03125 C 52.714844 67.640625 52.480469 67.246094 52.132812 66.808594 C 51.558594 66.078125 51.003906 65.335938 50.371094 64.535156 M 155.480469 56.734375 C 155.253906 57.15625 155.019531 57.570312 154.808594 58 C 154.734375 58.148438 154.730469 58.324219 154.695312 58.488281 C 154.660156 58.632812 154.675781 58.816406 154.582031 58.910156 C 154.117188 59.351562 154.046875 59.898438 154.15625 60.433594 C 154.320312 61.25 154.476562 62.089844 154.839844 62.84375 C 155.222656 63.640625 155.507812 64.625 156.644531 64.75 C 156.742188 65.050781 156.738281 65.378906 156.921875 65.542969 C 157.566406 66.121094 158.25 66.671875 158.964844 67.183594 C 159.777344 67.769531 160.777344 67.984375 161.773438 68.195312 C 162.140625 68.273438 162.464844 68.503906 162.871094 68.195312 C 163.007812 68.089844 163.476562 68.117188 163.589844 68.234375 C 164.050781 68.707031 164.640625 68.789062 165.25 68.730469 C 166.402344 68.625 167.550781 68.472656 168.695312 68.308594 C 169.769531 68.15625 170.835938 67.957031 171.90625 67.796875 C 172.492188 67.707031 173.214844 66.894531 173.070312 66.398438 C 173.039062 66.292969 172.6875 66.15625 172.554688 66.199219 C 171.949219 66.40625 171.363281 66.65625 170.789062 66.921875 C 168.921875 67.789062 166.9375 67.800781 164.921875 67.59375 C 163.414062 67.4375 161.988281 67.011719 160.703125 66.300781 C 159.941406 65.878906 159.164062 65.382812 158.625 64.757812 C 157.789062 63.785156 157.148438 62.675781 156.503906 61.742188 C 156.527344 61.425781 156.628906 61.183594 156.542969 61.023438 C 155.960938 59.933594 156.390625 58.816406 156.527344 57.75 C 156.605469 57.117188 157.164062 56.476562 157.75 55.9375 C 158.253906 55.472656 159.128906 55.34375 159.308594 54.59375 C 159.320312 54.539062 159.441406 54.496094 159.523438 54.464844 C 159.867188 54.339844 160.207031 54.214844 160.554688 54.109375 C 161.59375 53.789062 162.617188 53.332031 163.6875 53.199219 C 164.917969 53.050781 166.195312 53.191406 167.453125 53.210938 C 167.535156 53.214844 167.628906 53.234375 167.703125 53.269531 C 168.097656 53.46875 168.476562 53.691406 168.882812 53.875 C 169.273438 54.050781 170.304688 53.6875 170.355469 53.324219 C 170.382812 53.113281 170.203125 52.753906 170.011719 52.679688 C 169.582031 52.511719 169.085938 52.417969 168.613281 52.40625 C 167.449219 52.367188 166.28125 52.34375 165.117188 52.40625 C 164.136719 52.460938 163.128906 52.542969 162.203125 52.800781 C 160.984375 53.140625 159.832031 53.660156 158.660156 54.121094 C 158.46875 54.195312 158.3125 54.34375 158.15625 54.472656 C 157.878906 54.707031 157.660156 55.0625 157.332031 55.175781 C 156.488281 55.464844 156.089844 56.125 155.480469 56.734375 M 27.203125 68.417969 C 27.527344 68.378906 27.851562 68.320312 28.175781 68.3125 C 29.152344 68.292969 30.058594 67.960938 30.996094 67.832031 C 31.824219 67.722656 32.289062 67.460938 32.476562 66.78125 C 32.527344 66.589844 32.460938 66.375 32.449219 66.167969 C 32.242188 66.199219 32.011719 66.191406 31.832031 66.273438 C 30.050781 67.074219 28.257812 67.726562 26.179688 67.699219 C 23.585938 67.664062 21.265625 67.078125 19.152344 65.722656 C 18.132812 65.066406 17.523438 64.183594 16.9375 63.253906 C 16.59375 62.714844 16.28125 62.160156 15.941406 61.585938 C 15.960938 61.472656 16.089844 61.246094 16.015625 61.109375 C 15.527344 60.214844 15.765625 59.304688 15.878906 58.390625 C 15.960938 57.726562 16.117188 57.042969 16.601562 56.570312 C 17.507812 55.6875 18.414062 54.757812 19.6875 54.265625 C 20.726562 53.871094 21.773438 53.386719 22.871094 53.238281 C 24.167969 53.0625 25.519531 53.207031 26.847656 53.214844 C 26.925781 53.21875 27.011719 53.257812 27.085938 53.296875 C 27.527344 53.519531 27.957031 53.769531 28.410156 53.96875 C 28.796875 54.140625 29.855469 53.59375 29.84375 53.214844 C 29.839844 53.023438 29.664062 52.734375 29.484375 52.675781 C 29.042969 52.523438 28.558594 52.417969 28.085938 52.40625 C 26.921875 52.367188 25.753906 52.355469 24.589844 52.40625 C 23.714844 52.441406 22.816406 52.5 21.984375 52.71875 C 20.929688 52.996094 19.964844 53.542969 18.90625 53.796875 C 17.753906 54.074219 17.222656 55.011719 16.253906 55.492188 C 15.265625 55.980469 14.769531 56.9375 14.34375 57.863281 C 14.226562 58.121094 14.199219 58.410156 14.128906 58.683594 C 13.636719 59.132812 13.507812 59.734375 13.617188 60.339844 C 13.777344 61.21875 13.910156 62.132812 14.320312 62.925781 C 14.710938 63.679688 14.984375 64.683594 16.101562 64.746094 C 16.203125 65.058594 16.195312 65.367188 16.363281 65.515625 C 17.03125 66.101562 17.738281 66.65625 18.457031 67.191406 C 19.324219 67.832031 20.40625 68.019531 21.464844 68.238281 C 21.707031 68.289062 21.976562 68.230469 22.234375 68.230469 C 22.523438 68.226562 22.945312 68.128906 23.074219 68.257812 C 23.507812 68.699219 24.058594 68.757812 24.613281 68.730469 C 25.445312 68.683594 26.269531 68.550781 27.203125 68.417969 M 217.160156 53.800781 C 217.636719 53.753906 218.113281 53.660156 218.585938 53.675781 C 220.480469 53.734375 222.371094 53.851562 224.265625 53.898438 C 225.003906 53.917969 225.703125 53.363281 225.828125 52.773438 C 225.476562 52.773438 225.125 52.753906 224.777344 52.777344 C 223.304688 52.878906 221.832031 53.042969 220.355469 53.078125 C 219.429688 53.101562 218.460938 53.046875 217.574219 52.824219 C 216.117188 52.460938 214.746094 52.601562 213.375 53.046875 C 213.25 53.089844 213.066406 53.292969 213.097656 53.355469 C 213.230469 53.65625 213.367188 53.988281 213.617188 54.203125 C 213.996094 54.535156 213.882812 54.851562 213.8125 55.230469 C 213.683594 55.925781 213.984375 56.640625 213.753906 57.347656 C 213.71875 57.449219 213.929688 57.601562 213.980469 57.746094 C 214.035156 57.894531 214.070312 58.0625 214.050781 58.214844 C 214.011719 58.519531 213.867188 58.820312 213.878906 59.117188 C 213.898438 59.839844 213.953125 60.558594 214.046875 61.273438 C 214.15625 62.097656 214.242188 62.933594 214.074219 63.738281 C 213.808594 64.996094 214.054688 66.292969 213.632812 67.53125 C 213.558594 67.75 213.65625 68.015625 213.683594 68.304688 C 214.328125 68.058594 214.882812 67.847656 215.4375 67.640625 C 215.882812 67.472656 216.039062 67.195312 216.011719 66.761719 C 215.9375 65.527344 215.914062 64.289062 215.851562 63.054688 C 215.835938 62.777344 215.742188 62.5 215.683594 62.222656 C 215.652344 62.054688 215.574219 61.886719 215.59375 61.726562 C 215.65625 61.203125 215.800781 60.6875 215.832031 60.164062 C 215.878906 59.382812 215.871094 58.601562 215.859375 57.820312 C 215.851562 57.375 216.125 57.269531 216.558594 57.21875 C 218.089844 57.042969 219.664062 57.597656 221.167969 56.996094 C 221.183594 56.988281 221.210938 57 221.234375 57.003906 C 222.804688 57.113281 224.378906 57.222656 225.953125 57.335938 C 226.761719 57.394531 227.582031 56.871094 227.863281 56.042969 C 227.59375 56.089844 227.367188 56.125 227.140625 56.164062 C 226.5 56.277344 225.859375 56.453125 225.210938 56.492188 C 224.355469 56.542969 223.492188 56.488281 222.628906 56.476562 C 220.675781 56.453125 218.722656 56.449219 216.773438 56.386719 C 216.28125 56.371094 215.671875 56.265625 215.875 55.558594 C 215.898438 55.472656 215.855469 55.355469 215.800781 55.273438 C 215.445312 54.757812 215.96875 54.339844 216.019531 53.871094 C 216.027344 53.8125 216.347656 53.761719 216.527344 53.75 C 216.695312 53.742188 216.871094 53.785156 217.160156 53.800781 M 232.875 53.792969 C 233.953125 53.878906 235.03125 53.964844 236.089844 54.050781 C 235.851562 54.59375 235.542969 54.980469 235.535156 55.375 C 235.519531 56.164062 235.492188 57.007812 235.789062 57.722656 C 236.21875 58.765625 235.878906 59.785156 236.003906 60.804688 C 236.089844 61.5 235.878906 62.21875 236.179688 62.90625 C 236.210938 62.984375 236.214844 63.082031 236.199219 63.164062 C 236.097656 63.609375 235.925781 64.046875 235.882812 64.496094 C 235.769531 65.734375 235.691406 66.976562 235.644531 68.214844 C 235.640625 68.347656 236 68.625 236.0625 68.597656 C 236.671875 68.34375 237.289062 68.082031 237.816406 67.722656 C 237.976562 67.617188 237.859375 67.191406 237.867188 66.914062 C 237.871094 66.875 237.867188 66.835938 237.867188 66.796875 C 237.859375 66.308594 237.914062 65.8125 237.429688 65.429688 C 237.332031 65.355469 237.335938 65.003906 237.417969 64.960938 C 237.894531 64.710938 237.722656 64.328125 237.734375 63.976562 C 237.765625 63.289062 237.808594 62.605469 237.824219 61.917969 C 237.828125 61.648438 237.78125 61.375 237.738281 61.105469 C 237.695312 60.835938 237.625 60.574219 237.566406 60.304688 C 237.617188 60.292969 237.667969 60.277344 237.71875 60.261719 C 237.550781 60.148438 237.382812 60.03125 237.21875 59.914062 C 237.902344 59.046875 237.949219 57.988281 237.457031 57.464844 C 237.566406 57.015625 237.6875 56.671875 237.726562 56.324219 C 237.796875 55.722656 237.804688 55.113281 237.875 54.511719 C 237.890625 54.382812 238.085938 54.167969 238.195312 54.167969 C 239.339844 54.179688 240.480469 54.230469 241.625 54.265625 C 241.957031 54.277344 242.296875 54.246094 242.625 54.292969 C 243.96875 54.484375 245.292969 53.945312 246.019531 52.808594 C 245.742188 52.808594 245.523438 52.777344 245.320312 52.816406 C 245.066406 52.863281 244.832031 53.015625 244.578125 53.039062 C 243.625 53.113281 242.667969 53.144531 241.714844 53.21875 C 241.238281 53.253906 240.773438 53.363281 240.296875 53.402344 C 239.929688 53.433594 239.546875 53.445312 239.1875 53.390625 C 238.179688 53.242188 237.183594 53.015625 236.171875 52.894531 C 235.171875 52.777344 234.054688 52.957031 233.171875 52.621094 C 232.1875 52.25 231.234375 52.636719 230.257812 52.320312 C 229.296875 52.011719 228.429688 52.640625 227.789062 53.316406 C 227.644531 53.46875 227.699219 53.773438 227.648438 54.097656 C 228.355469 53.980469 228.878906 53.839844 229.410156 53.820312 C 230.519531 53.773438 231.632812 53.792969 232.875 53.792969 Z M 232.875 53.792969 "/>
<path style=" stroke:none;fill-rule:nonzero;fill:rgb(1.176471%,1.176471%,0.784314%);fill-opacity:1;" d="M 121.976562 45.863281 C 121.941406 44.3125 121.878906 42.761719 121.875 41.210938 C 121.867188 38.402344 121.886719 35.59375 121.910156 32.785156 C 121.917969 31.511719 121.984375 30.238281 121.992188 28.964844 C 121.992188 28.761719 121.859375 28.515625 121.695312 28.363281 C 120.769531 27.511719 119.859375 26.644531 118.867188 25.851562 C 117.324219 24.621094 117.394531 22.566406 118.84375 21.335938 C 120.785156 19.683594 122.695312 17.996094 124.542969 16.265625 C 126.027344 14.875 128.15625 14.820312 129.703125 16.203125 C 131.765625 18.054688 133.839844 19.898438 135.875 21.769531 C 136.960938 22.769531 136.953125 24.363281 135.890625 25.394531 C 135.097656 26.164062 134.242188 26.886719 133.449219 27.65625 C 133.261719 27.835938 133.097656 28.121094 133.097656 28.359375 C 133.074219 34.128906 133.078125 39.894531 133.078125 45.664062 C 133.078125 45.738281 133.089844 45.816406 133.101562 45.976562 C 133.34375 45.976562 133.578125 45.976562 133.8125 45.976562 C 137.277344 45.976562 140.746094 45.96875 144.210938 45.996094 C 144.511719 45.996094 144.90625 46.144531 145.101562 46.34375 C 147.28125 48.566406 149.4375 50.808594 151.585938 53.054688 C 152.136719 53.628906 152.136719 54.445312 151.660156 55.082031 C 151.160156 55.746094 150.199219 56.128906 149.417969 55.824219 C 147.78125 55.179688 146.167969 54.484375 144.578125 53.746094 C 143.957031 53.457031 143.359375 53.332031 142.667969 53.335938 C 140.429688 53.359375 138.191406 53.347656 135.859375 53.347656 C 135.859375 53.609375 135.859375 53.839844 135.859375 54.066406 C 135.84375 71.046875 135.832031 88.027344 135.804688 105.011719 C 135.804688 105.292969 135.707031 105.65625 135.496094 105.847656 C 132.8125 108.261719 130.097656 110.652344 127.390625 113.050781 C 127.3125 113.121094 127.222656 113.179688 127.101562 113.273438 C 125.8125 112.121094 124.53125 110.972656 123.246094 109.828125 C 121.898438 108.621094 120.535156 107.433594 119.210938 106.207031 C 118.996094 106.011719 118.835938 105.675781 118.835938 105.402344 C 118.847656 101.375 118.898438 97.34375 118.929688 93.316406 C 118.976562 87.714844 119.023438 82.113281 119.050781 76.515625 C 119.058594 75.164062 118.957031 73.808594 118.96875 72.460938 C 119.035156 66.386719 119.125 60.316406 119.207031 54.246094 C 119.210938 53.96875 119.207031 53.695312 119.207031 53.339844 C 118.730469 53.339844 118.273438 53.339844 117.816406 53.339844 C 116.304688 53.335938 114.792969 53.328125 113.28125 53.335938 C 112.667969 53.339844 112.023438 53.285156 111.449219 53.433594 C 110.78125 53.609375 110.164062 53.960938 109.542969 54.269531 C 108.742188 54.667969 107.980469 55.136719 107.167969 55.515625 C 106.167969 55.980469 105.585938 55.917969 104.800781 55.28125 C 104.128906 54.734375 103.859375 53.898438 104.441406 53.085938 C 104.988281 52.320312 105.609375 51.597656 106.203125 50.855469 C 107.390625 49.367188 108.585938 47.878906 109.769531 46.386719 C 110 46.101562 110.242188 45.953125 110.679688 45.957031 C 114.367188 45.976562 118.054688 45.96875 121.835938 45.96875 C 121.949219 45.933594 121.960938 45.898438 121.976562 45.863281 M 146.535156 51.796875 C 146.570312 51.789062 146.609375 51.78125 146.644531 51.773438 C 146.617188 51.730469 146.589844 51.691406 146.535156 51.574219 C 145.671875 50.671875 144.792969 49.78125 143.953125 48.863281 C 143.671875 48.5625 143.386719 48.441406 142.941406 48.445312 C 138.746094 48.453125 134.550781 48.445312 130.351562 48.441406 C 124.3125 48.4375 118.273438 48.425781 112.230469 48.433594 C 111.960938 48.433594 111.589844 48.523438 111.441406 48.695312 C 110.683594 49.570312 109.984375 50.480469 109.214844 51.433594 C 109.21875 51.460938 109.222656 51.492188 109.226562 51.523438 C 109.273438 51.503906 109.316406 51.480469 109.449219 51.445312 C 110.023438 51.164062 110.539062 50.839844 111.273438 50.84375 C 121.4375 50.875 131.601562 50.890625 141.765625 50.867188 C 143.429688 50.863281 145.03125 50.90625 146.535156 51.796875 M 126.121094 102.222656 C 126.128906 89.464844 126.132812 76.707031 126.136719 63.949219 C 126.140625 61.679688 126.132812 59.410156 126.144531 57.136719 C 126.148438 56.367188 126.726562 55.828125 127.519531 55.820312 C 128.304688 55.8125 128.890625 56.347656 128.925781 57.113281 C 128.933594 57.292969 128.925781 57.46875 128.925781 57.648438 C 128.914062 73.976562 128.902344 90.300781 128.890625 106.628906 C 128.890625 107.109375 128.890625 107.59375 128.890625 108.265625 C 130.257812 107.042969 131.484375 105.964844 132.671875 104.855469 C 132.882812 104.65625 133.039062 104.316406 133.039062 104.039062 C 133.0625 87.316406 133.066406 70.589844 133.070312 53.863281 C 133.070312 53.695312 133.046875 53.527344 133.035156 53.378906 C 129.328125 53.378906 125.675781 53.378906 122.011719 53.378906 C 122.003906 53.515625 121.996094 53.613281 121.996094 53.710938 C 121.867188 70.160156 121.757812 86.605469 121.578125 103.054688 C 121.566406 104.339844 121.878906 105.285156 123.003906 106.117188 C 124.085938 106.914062 125.019531 107.867188 126.128906 108.851562 C 126.128906 106.589844 126.128906 104.464844 126.121094 102.222656 M 131.070312 26.257812 C 131.90625 25.519531 132.726562 24.769531 133.574219 24.046875 C 133.9375 23.734375 133.972656 23.5 133.59375 23.167969 C 131.617188 21.433594 129.660156 19.6875 127.710938 17.933594 C 127.351562 17.613281 127.097656 17.585938 126.722656 17.921875 C 124.773438 19.679688 122.8125 21.421875 120.835938 23.152344 C 120.457031 23.484375 120.484375 23.707031 120.847656 24.027344 C 122.820312 25.761719 124.78125 27.503906 126.726562 29.261719 C 127.101562 29.597656 127.359375 29.570312 127.710938 29.246094 C 128.796875 28.257812 129.90625 27.292969 131.070312 26.257812 M 130.296875 36.445312 C 130.296875 34.503906 130.296875 32.5625 130.296875 30.4375 C 128.601562 32.140625 126.855469 32.613281 124.832031 31.117188 C 124.832031 36.085938 124.832031 41.003906 124.832031 45.941406 C 126.65625 45.941406 128.441406 45.941406 130.296875 45.941406 C 130.296875 42.789062 130.296875 39.675781 130.296875 36.445312 Z M 130.296875 36.445312 "/>
<path style=" stroke:none;fill-rule:nonzero;fill:rgb(27.843137%,10.588235%,5.882353%);fill-opacity:1;" d="M 90.957031 62.234375 C 90.824219 62.398438 90.75 62.574219 90.609375 62.640625 C 89.503906 63.152344 88.925781 64.152344 88.007812 64.832031 C 87.664062 65.089844 87.257812 65.285156 86.863281 65.484375 C 85.699219 66.074219 84.539062 66.679688 83.347656 67.230469 C 82.894531 67.441406 82.371094 67.535156 81.878906 67.671875 C 81.566406 67.757812 81.253906 67.828125 80.9375 67.890625 C 80.058594 68.058594 79.179688 68.230469 78.296875 68.375 C 78.148438 68.398438 77.976562 68.277344 77.8125 68.269531 C 77 68.226562 76.046875 67.945312 75.414062 68.230469 C 74.691406 68.550781 74.066406 68.472656 73.394531 68.449219 C 73 68.4375 72.609375 68.265625 72.085938 68.132812 C 72.265625 67.996094 72.371094 67.859375 72.511719 67.820312 C 73.722656 67.480469 73.800781 67.382812 73.910156 66.3125 C 73.984375 65.5625 74.1875 64.820312 74.214844 64.074219 C 74.234375 63.4375 74.070312 62.796875 74.027344 62.160156 C 74.007812 61.894531 74.125 61.621094 74.128906 61.351562 C 74.132812 61.152344 74.039062 60.953125 74.019531 60.75 C 73.988281 60.441406 73.925781 60.117188 73.992188 59.820312 C 74.058594 59.503906 74.304688 59.28125 73.953125 58.898438 C 73.699219 58.617188 73.800781 58.082031 73.738281 57.65625 C 73.613281 56.839844 73.472656 56.023438 73.363281 55.207031 C 73.34375 55.066406 73.433594 54.90625 73.5 54.761719 C 73.785156 54.117188 73.515625 53.488281 72.832031 53.203125 C 72.714844 53.15625 72.636719 53.039062 72.539062 52.953125 C 72.640625 52.867188 72.738281 52.710938 72.847656 52.707031 C 74.28125 52.628906 75.671875 52.0625 77.144531 52.414062 C 77.375 52.472656 77.621094 52.476562 77.855469 52.503906 C 79.117188 52.636719 80.382812 52.746094 81.636719 52.917969 C 82.695312 53.058594 83.75 53.253906 84.800781 53.460938 C 85.332031 53.5625 85.964844 53.605469 86.011719 54.304688 C 86.800781 54.175781 87.46875 54.152344 88.027344 54.800781 C 88.257812 55.070312 88.890625 55.035156 89.273438 55.238281 C 89.984375 55.613281 90.933594 55.9375 91.234375 56.507812 C 91.488281 56.996094 92.277344 57.480469 91.867188 58.210938 C 91.84375 58.25 91.863281 58.34375 91.902344 58.375 C 92.339844 58.742188 92.136719 59.1875 92.15625 59.625 C 92.183594 60.394531 91.996094 60.984375 91.304688 61.128906 C 91.167969 61.585938 91.074219 61.894531 90.957031 62.234375 M 78.191406 67.542969 C 78.585938 67.523438 79.003906 67.574219 79.375 67.472656 C 80.832031 67.078125 82.300781 66.695312 83.714844 66.1875 C 84.554688 65.886719 85.351562 65.433594 86.066406 64.929688 C 86.734375 64.453125 87.257812 63.824219 87.851562 63.265625 C 88.175781 62.960938 88.511719 62.664062 88.773438 62.425781 C 88.835938 62.195312 88.867188 61.992188 88.941406 61.800781 C 89.417969 60.613281 90.015625 59.5 89.429688 58.132812 C 88.996094 57.117188 87.976562 56.683594 87.332031 55.910156 C 87.292969 55.863281 87.167969 55.871094 87.085938 55.847656 C 86.632812 55.714844 86.167969 55.605469 85.726562 55.445312 C 85.03125 55.191406 84.378906 54.824219 83.664062 54.648438 C 82.707031 54.410156 81.648438 54.441406 80.734375 54.125 C 79.410156 53.671875 78.078125 53.585938 76.703125 53.59375 C 76.160156 53.597656 75.800781 53.804688 75.773438 54.316406 C 75.742188 54.945312 75.605469 55.597656 75.753906 56.191406 C 75.875 56.691406 75.789062 56.941406 75.15625 57.289062 C 75.394531 57.417969 75.632812 57.550781 75.816406 57.648438 C 75.789062 57.917969 75.730469 58.136719 75.746094 58.355469 C 75.773438 58.742188 75.882812 59.125 75.890625 59.511719 C 75.914062 60.546875 75.921875 61.589844 75.890625 62.625 C 75.882812 62.890625 75.695312 63.144531 75.621094 63.414062 C 75.578125 63.574219 75.527344 63.859375 75.597656 63.894531 C 76.042969 64.109375 75.929688 64.449219 75.929688 64.777344 C 75.929688 65.207031 75.882812 65.652344 75.984375 66.066406 C 76.113281 66.566406 76.285156 67.011719 75.535156 67.214844 C 75.503906 67.222656 75.5 67.320312 75.4375 67.542969 C 76.351562 67.542969 77.207031 67.542969 78.191406 67.542969 Z M 78.191406 67.542969 "/>
<path style=" stroke:none;fill-rule:nonzero;fill:rgb(25.882353%,11.764706%,7.45098%);fill-opacity:1;" d="M 191.613281 67.960938 C 190.734375 68.183594 189.863281 68.429688 188.972656 68.601562 C 188.75 68.648438 188.417969 68.511719 188.222656 68.367188 C 187.671875 67.96875 186.972656 67.605469 186.679688 67.078125 C 186.128906 66.085938 185.199219 65.511719 184.292969 64.867188 C 183.699219 64.441406 183.1875 63.925781 182.675781 63.425781 C 182.5 63.253906 182.4375 62.988281 182.273438 62.867188 C 180.898438 61.929688 179.523438 60.992188 178.101562 60.019531 C 177.824219 60.46875 177.738281 60.832031 177.828125 61.328125 C 177.941406 61.96875 177.722656 62.652344 177.746094 63.3125 C 177.785156 64.417969 177.875 65.523438 177.996094 66.621094 C 178.082031 67.457031 177.75 67.859375 176.777344 68.042969 C 176.515625 68.09375 176.289062 68.285156 176.042969 68.402344 C 175.851562 68.496094 175.652344 68.570312 175.460938 68.652344 C 175.414062 68.613281 175.371094 68.574219 175.324219 68.535156 C 175.386719 68.339844 175.453125 68.144531 175.515625 67.953125 C 175.597656 67.710938 175.730469 67.472656 175.753906 67.222656 C 175.824219 66.574219 175.835938 65.917969 175.902344 65.265625 C 175.914062 65.148438 176.085938 65.054688 176.144531 64.9375 C 176.238281 64.746094 176.429688 64.460938 176.351562 64.359375 C 175.859375 63.726562 175.871094 63.054688 175.921875 62.328125 C 175.992188 61.367188 175.941406 60.394531 175.941406 59.378906 C 176.242188 59.195312 176.660156 59.070312 176.101562 58.558594 C 175.808594 58.292969 175.921875 57.667969 175.871094 57.203125 C 175.796875 56.507812 175.742188 55.808594 175.675781 55.113281 C 175.660156 54.976562 175.566406 54.828125 175.609375 54.714844 C 175.847656 54.085938 175.75 53.582031 175.027344 53.246094 C 174.996094 53.230469 175.054688 52.898438 175.140625 52.871094 C 176.285156 52.46875 177.464844 52.25 178.703125 52.460938 C 178.832031 52.484375 178.960938 52.507812 179.089844 52.507812 C 180.585938 52.507812 182.089844 52.445312 183.582031 52.519531 C 184.976562 52.59375 186.339844 52.855469 187.664062 53.332031 C 188.472656 53.621094 188.816406 55.109375 188.007812 55.578125 C 187.949219 55.613281 187.945312 55.722656 187.914062 55.796875 C 187.839844 55.980469 187.828125 56.226562 187.683594 56.335938 C 186.789062 57.015625 186.058594 57.824219 185.0625 58.441406 C 184.027344 59.089844 182.796875 58.960938 181.816406 59.628906 C 181.785156 59.804688 181.738281 60.082031 181.683594 60.410156 C 181.753906 60.410156 181.886719 60.40625 182.019531 60.410156 C 182.15625 60.414062 182.375 60.378906 182.417969 60.441406 C 183.042969 61.292969 184.046875 61.859375 184.660156 62.683594 C 185.378906 63.648438 186.527344 64.265625 187.152344 65.242188 C 187.886719 66.386719 189.238281 66.753906 190.292969 67.484375 C 190.574219 67.679688 191.128906 67.5625 191.578125 67.664062 C 191.605469 67.8125 191.609375 67.886719 191.613281 67.960938 M 180.945312 59.003906 C 181.15625 58.992188 181.394531 59.035156 181.574219 58.964844 C 182.800781 58.484375 184.246094 58.292969 184.902344 57.023438 C 184.996094 56.832031 185.285156 56.714844 185.363281 56.527344 C 185.601562 55.96875 185.859375 55.398438 185.953125 54.816406 C 186.023438 54.382812 185.214844 53.804688 184.617188 53.636719 C 184.128906 53.5 183.671875 53.28125 183.191406 53.125 C 183.078125 53.085938 182.917969 53.148438 182.78125 53.171875 C 182.621094 53.203125 182.460938 53.269531 182.296875 53.277344 C 181.21875 53.328125 180.132812 53.332031 179.058594 53.421875 C 177.800781 53.53125 177.679688 53.714844 177.675781 54.828125 C 177.675781 55.4375 177.964844 56.089844 177.382812 56.632812 C 177.34375 56.671875 177.390625 56.863281 177.449219 56.890625 C 178.1875 57.238281 177.878906 57.828125 177.820312 58.308594 C 177.757812 58.800781 178.039062 59.105469 178.445312 59.121094 C 179.238281 59.152344 180.070312 59.453125 180.945312 59.003906 Z M 180.945312 59.003906 "/>
<path style=" stroke:none;fill-rule:nonzero;fill:rgb(27.843137%,10.588235%,5.882353%);fill-opacity:1;" d="M 59.117188 61.125 C 58.53125 60.757812 57.984375 60.414062 57.226562 59.9375 C 57.21875 60.503906 57.222656 60.921875 57.199219 61.339844 C 57.167969 61.964844 57.054688 62.589844 57.078125 63.210938 C 57.121094 64.355469 57.214844 65.496094 57.328125 66.636719 C 57.398438 67.371094 57.160156 67.730469 56.40625 67.980469 C 56.007812 68.109375 55.648438 68.328125 55.261719 68.492188 C 55.105469 68.558594 54.921875 68.585938 54.789062 68.617188 C 54.96875 67.390625 55.140625 66.226562 55.3125 65.0625 C 55.484375 64.902344 55.6875 64.710938 55.859375 64.550781 C 55.164062 63.851562 55.222656 63.113281 55.246094 62.359375 C 55.28125 61.390625 55.257812 60.421875 55.257812 59.398438 C 55.640625 59.210938 55.96875 59.03125 55.417969 58.539062 C 55.160156 58.304688 55.164062 57.746094 55.21875 57.355469 C 55.339844 56.511719 55.039062 55.730469 54.9375 54.921875 C 54.917969 54.769531 54.914062 54.59375 54.972656 54.457031 C 55.191406 53.972656 54.996094 53.652344 54.542969 53.378906 C 54.417969 53.308594 54.3125 53.152344 54.292969 53.023438 C 54.285156 52.964844 54.492188 52.847656 54.621094 52.808594 C 55.800781 52.453125 56.984375 52.335938 58.257812 52.480469 C 59.597656 52.628906 60.976562 52.476562 62.339844 52.511719 C 63.902344 52.546875 65.4375 52.730469 66.882812 53.320312 C 67.925781 53.746094 68.15625 54.851562 67.320312 55.578125 C 67.269531 55.621094 67.253906 55.695312 67.230469 55.761719 C 67.15625 55.960938 67.15625 56.230469 67.003906 56.347656 C 66.113281 57.027344 65.390625 57.84375 64.378906 58.449219 C 63.339844 59.074219 62.136719 59.011719 61.171875 59.5625 C 61.121094 59.816406 61.0625 60.097656 60.996094 60.425781 C 61.09375 60.417969 61.230469 60.402344 61.363281 60.40625 C 61.5 60.40625 61.71875 60.386719 61.761719 60.449219 C 62.28125 61.25 63.199219 61.738281 63.78125 62.46875 C 64.59375 63.480469 65.761719 64.222656 66.484375 65.253906 C 67.265625 66.363281 68.601562 66.730469 69.625 67.5 C 69.769531 67.609375 70.089844 67.527344 70.328125 67.542969 C 70.570312 67.5625 70.808594 67.59375 71.050781 67.691406 C 70.136719 68.355469 69.101562 68.605469 67.980469 68.621094 C 67.9375 68.621094 67.878906 68.625 67.851562 68.601562 C 67.234375 68.121094 66.417969 67.734375 66.050781 67.128906 C 65.457031 66.148438 64.570312 65.519531 63.632812 64.867188 C 63.035156 64.453125 62.527344 63.933594 62.015625 63.429688 C 61.839844 63.257812 61.773438 63 61.632812 62.730469 C 60.882812 62.511719 60.175781 62.121094 59.660156 61.46875 C 59.550781 61.328125 59.332031 61.253906 59.117188 61.125 M 65.027344 54.277344 C 64.53125 54.039062 64.039062 53.800781 63.539062 53.570312 C 63.21875 53.421875 62.894531 53.273438 62.5625 53.152344 C 62.441406 53.109375 62.28125 53.121094 62.148438 53.144531 C 61.988281 53.171875 61.835938 53.273438 61.679688 53.28125 C 60.554688 53.335938 59.429688 53.371094 58.304688 53.425781 C 58.070312 53.4375 57.824219 53.472656 57.605469 53.546875 C 56.898438 53.789062 57.042969 54.34375 57.011719 54.847656 C 56.976562 55.433594 57.296875 56.066406 56.742188 56.597656 C 56.691406 56.644531 56.734375 56.871094 56.796875 56.902344 C 57.507812 57.207031 57.1875 57.757812 57.175781 58.207031 C 57.152344 58.914062 57.382812 59.121094 58.195312 59.171875 C 58.96875 59.21875 59.6875 59.140625 60.457031 58.976562 C 61.984375 58.652344 63.425781 58.316406 64.261719 56.984375 C 64.375 56.800781 64.585938 56.664062 64.742188 56.496094 C 65.226562 55.988281 65.402344 54.886719 65.027344 54.277344 Z M 65.027344 54.277344 "/>
<path style=" stroke:none;fill-rule:nonzero;fill:rgb(26.27451%,12.156863%,7.843137%);fill-opacity:1;" d="M 191.613281 68.011719 C 191.609375 67.886719 191.605469 67.8125 191.601562 67.699219 C 191.765625 67.578125 191.996094 67.53125 192.082031 67.410156 C 192.804688 66.390625 193.683594 65.480469 194.25 64.355469 C 194.863281 63.144531 195.78125 62.058594 196.503906 60.886719 C 196.816406 60.378906 196.953125 59.785156 197.214844 59.25 C 197.820312 58.027344 198.464844 56.816406 199.074219 55.59375 C 199.175781 55.386719 199.175781 55.140625 199.226562 54.914062 C 199.296875 54.578125 199.289062 54.207031 199.835938 54.140625 C 199.921875 54.132812 200.03125 53.875 200.023438 53.738281 C 200.003906 53.410156 200.027344 53.148438 200.371094 52.929688 C 200.707031 52.714844 200.960938 52.402344 201.277344 52.164062 C 201.433594 52.042969 201.65625 51.988281 201.925781 51.871094 C 202.40625 53.140625 203.660156 54.058594 203.703125 55.257812 C 204.164062 56.1875 204.542969 56.960938 204.921875 57.738281 C 204.949219 57.789062 204.929688 57.859375 204.960938 57.910156 C 205.394531 58.578125 205.828125 59.242188 206.261719 59.90625 C 206.925781 60.933594 207.570312 61.964844 208.253906 62.976562 C 208.503906 63.347656 208.777344 63.6875 208.660156 64.152344 C 208.644531 64.207031 208.710938 64.300781 208.773438 64.34375 C 209.832031 65.074219 210.3125 66.195312 211.125 67.09375 C 211.417969 67.417969 211.320312 67.675781 210.957031 67.933594 C 210.527344 68.238281 210.148438 68.605469 209.699219 68.980469 C 208.675781 66.660156 207.597656 64.554688 206.226562 62.394531 C 205.804688 63.347656 205.109375 62.890625 204.550781 62.917969 C 203.707031 62.953125 202.859375 62.933594 202.015625 62.941406 C 201.101562 62.945312 200.191406 62.945312 199.28125 62.953125 C 199.15625 62.953125 199.027344 62.96875 198.90625 62.984375 C 198.523438 63.039062 198.140625 63.109375 197.757812 63.152344 C 197.214844 63.210938 196.664062 63.222656 196.132812 63.316406 C 195.964844 63.34375 195.796875 63.554688 195.703125 63.71875 C 194.902344 65.125 194.109375 66.53125 193.335938 67.949219 C 193.015625 68.527344 192.414062 68.785156 191.832031 68.625 C 191.398438 68.503906 191.453125 68.320312 191.613281 68.011719 M 197.605469 62.105469 C 198.425781 62.113281 199.242188 62.117188 200.0625 62.128906 C 200.628906 62.140625 201.203125 62.207031 201.765625 62.167969 C 202.824219 62.09375 203.882812 61.960938 204.941406 61.859375 C 205.765625 61.777344 205.839844 61.667969 205.46875 61.058594 C 205.445312 61.023438 205.425781 60.984375 205.429688 60.945312 C 205.445312 60.058594 204.492188 59.675781 204.117188 58.976562 C 203.792969 58.375 203.222656 57.886719 203.21875 57.15625 C 203.21875 57.070312 203.160156 56.933594 203.089844 56.90625 C 202.257812 56.605469 202.214844 55.816406 201.78125 55.269531 C 201.554688 54.984375 201.304688 54.71875 201.015625 54.386719 C 199.480469 56.941406 198.113281 59.378906 196.894531 61.929688 C 197.125 61.996094 197.308594 62.046875 197.605469 62.105469 Z M 197.605469 62.105469 "/>
<path style=" stroke:none;fill-rule:nonzero;fill:rgb(28.235294%,11.372549%,6.27451%);fill-opacity:1;" d="M 50.40625 64.570312 C 51.003906 65.335938 51.558594 66.078125 52.132812 66.808594 C 52.480469 67.246094 52.714844 67.640625 52.039062 68.03125 C 51.816406 68.164062 51.71875 68.460938 51.5 68.613281 C 51.308594 68.746094 51.035156 68.773438 50.960938 68.796875 C 50.195312 67.4375 49.308594 66.160156 48.777344 64.777344 C 48.519531 64.105469 47.957031 63.609375 47.785156 62.929688 C 47.75 62.789062 47.550781 62.683594 47.378906 62.515625 C 46.988281 63.367188 46.269531 62.878906 45.691406 62.910156 C 44.847656 62.960938 44.003906 62.945312 43.15625 62.949219 C 42.265625 62.957031 41.375 62.953125 40.484375 62.957031 C 40.359375 62.957031 40.234375 62.964844 40.109375 62.980469 C 39.726562 63.035156 39.347656 63.109375 38.960938 63.152344 C 38.421875 63.210938 37.871094 63.21875 37.335938 63.3125 C 37.167969 63.34375 37 63.554688 36.90625 63.714844 C 36.105469 65.121094 35.3125 66.527344 34.535156 67.945312 C 34.21875 68.527344 33.613281 68.792969 33.035156 68.625 C 32.683594 68.523438 32.589844 68.382812 32.792969 68.121094 C 33.335938 67.425781 33.910156 66.746094 34.4375 66.039062 C 34.734375 65.644531 34.960938 65.203125 35.226562 64.789062 C 36.066406 63.480469 36.929688 62.179688 37.738281 60.859375 C 37.96875 60.484375 38.019531 60.027344 38.207031 59.628906 C 38.460938 59.085938 38.777344 58.570312 39.050781 58.035156 C 39.480469 57.191406 39.90625 56.347656 40.308594 55.496094 C 40.398438 55.308594 40.367188 55.074219 40.433594 54.871094 C 40.527344 54.574219 40.484375 54.1875 41.019531 54.144531 C 41.109375 54.136719 41.25 53.875 41.226562 53.753906 C 41.148438 53.351562 41.328125 53.101562 41.671875 52.871094 C 41.949219 52.683594 42.160156 52.421875 42.429688 52.222656 C 42.621094 52.082031 42.859375 51.996094 43.101562 51.871094 C 43.683594 52.871094 44.242188 53.796875 44.761719 54.738281 C 44.882812 54.964844 44.875 55.246094 45.011719 55.449219 C 45.382812 56.207031 45.753906 56.964844 46.121094 57.726562 C 46.148438 57.777344 46.128906 57.851562 46.160156 57.898438 C 46.664062 58.636719 47.191406 59.367188 47.679688 60.113281 C 48.269531 61.019531 48.847656 61.9375 49.394531 62.867188 C 49.625 63.261719 50.03125 63.609375 49.878906 64.148438 C 49.855469 64.238281 50.199219 64.40625 50.40625 64.570312 M 38.492188 61.324219 C 38.359375 61.515625 38.226562 61.707031 37.96875 62.082031 C 38.769531 62.082031 39.375 62.070312 39.984375 62.085938 C 40.972656 62.109375 41.964844 62.207031 42.953125 62.167969 C 44.015625 62.125 45.070312 61.972656 46.128906 61.851562 C 46.386719 61.820312 46.648438 61.75 46.882812 61.648438 C 46.964844 61.613281 47.027344 61.34375 47.003906 61.332031 C 46.324219 60.992188 46.703125 60.066406 45.875 59.769531 C 45.625 59.679688 45.574219 59.207031 45.355469 58.96875 C 44.851562 58.4375 44.425781 57.890625 44.421875 57.160156 C 44.421875 57.074219 44.367188 56.9375 44.292969 56.910156 C 43.445312 56.59375 43.402344 55.78125 42.953125 55.21875 C 42.738281 54.953125 42.488281 54.703125 42.179688 54.363281 C 41.515625 55.5625 40.867188 56.582031 40.382812 57.660156 C 39.949219 58.625 39.015625 59.375 38.886719 60.46875 C 38.867188 60.617188 38.640625 60.742188 38.542969 60.894531 C 38.480469 60.996094 38.480469 61.128906 38.492188 61.324219 Z M 38.492188 61.324219 "/>
<path style=" stroke:none;fill-rule:nonzero;fill:rgb(26.27451%,12.156863%,7.843137%);fill-opacity:1;" d="M 155.507812 56.695312 C 156.089844 56.125 156.488281 55.464844 157.332031 55.175781 C 157.660156 55.0625 157.878906 54.707031 158.15625 54.472656 C 158.3125 54.34375 158.46875 54.195312 158.660156 54.121094 C 159.832031 53.660156 160.984375 53.140625 162.203125 52.800781 C 163.128906 52.542969 164.136719 52.460938 165.117188 52.40625 C 166.28125 52.34375 167.449219 52.367188 168.613281 52.40625 C 169.085938 52.417969 169.582031 52.511719 170.011719 52.679688 C 170.203125 52.753906 170.382812 53.113281 170.355469 53.324219 C 170.304688 53.6875 169.273438 54.050781 168.882812 53.875 C 168.476562 53.691406 168.097656 53.46875 167.703125 53.269531 C 167.628906 53.234375 167.535156 53.214844 167.453125 53.210938 C 166.195312 53.191406 164.917969 53.050781 163.6875 53.199219 C 162.617188 53.332031 161.59375 53.789062 160.554688 54.109375 C 160.207031 54.214844 159.867188 54.339844 159.523438 54.464844 C 159.441406 54.496094 159.320312 54.539062 159.308594 54.59375 C 159.128906 55.34375 158.253906 55.472656 157.75 55.9375 C 157.164062 56.476562 156.605469 57.117188 156.527344 57.75 C 156.390625 58.816406 155.960938 59.933594 156.542969 61.023438 C 156.628906 61.183594 156.527344 61.425781 156.503906 61.742188 C 157.148438 62.675781 157.789062 63.785156 158.625 64.757812 C 159.164062 65.382812 159.941406 65.878906 160.703125 66.300781 C 161.988281 67.011719 163.414062 67.4375 164.921875 67.59375 C 166.9375 67.800781 168.921875 67.789062 170.789062 66.921875 C 171.363281 66.65625 171.949219 66.40625 172.554688 66.199219 C 172.6875 66.15625 173.039062 66.292969 173.070312 66.398438 C 173.214844 66.894531 172.492188 67.707031 171.90625 67.796875 C 170.835938 67.957031 169.769531 68.15625 168.695312 68.308594 C 167.550781 68.472656 166.402344 68.625 165.25 68.730469 C 164.640625 68.789062 164.050781 68.707031 163.589844 68.234375 C 163.476562 68.117188 163.007812 68.089844 162.871094 68.195312 C 162.464844 68.503906 162.140625 68.273438 161.773438 68.195312 C 160.777344 67.984375 159.777344 67.769531 158.964844 67.183594 C 158.25 66.671875 157.566406 66.121094 156.921875 65.542969 C 156.738281 65.378906 156.742188 65.050781 156.644531 64.75 C 155.507812 64.625 155.222656 63.640625 154.839844 62.84375 C 154.476562 62.089844 154.320312 61.25 154.15625 60.433594 C 154.046875 59.898438 154.117188 59.351562 154.582031 58.910156 C 154.675781 58.816406 154.660156 58.632812 154.695312 58.488281 C 154.730469 58.324219 154.734375 58.148438 154.808594 58 C 155.019531 57.570312 155.253906 57.15625 155.507812 56.695312 Z M 155.507812 56.695312 "/>
<path style=" stroke:none;fill-rule:nonzero;fill:rgb(28.235294%,10.980392%,6.27451%);fill-opacity:1;" d="M 27.152344 68.4375 C 26.269531 68.550781 25.445312 68.683594 24.613281 68.730469 C 24.058594 68.757812 23.507812 68.699219 23.074219 68.257812 C 22.945312 68.128906 22.523438 68.226562 22.234375 68.230469 C 21.976562 68.230469 21.707031 68.289062 21.464844 68.238281 C 20.40625 68.019531 19.324219 67.832031 18.457031 67.191406 C 17.738281 66.65625 17.03125 66.101562 16.363281 65.515625 C 16.195312 65.367188 16.203125 65.058594 16.101562 64.746094 C 14.984375 64.683594 14.710938 63.679688 14.320312 62.925781 C 13.910156 62.132812 13.777344 61.21875 13.617188 60.339844 C 13.507812 59.734375 13.636719 59.132812 14.128906 58.683594 C 14.199219 58.410156 14.226562 58.121094 14.34375 57.863281 C 14.769531 56.9375 15.265625 55.980469 16.253906 55.492188 C 17.222656 55.011719 17.753906 54.074219 18.90625 53.796875 C 19.964844 53.542969 20.929688 52.996094 21.984375 52.71875 C 22.816406 52.5 23.714844 52.441406 24.589844 52.40625 C 25.753906 52.355469 26.921875 52.367188 28.085938 52.40625 C 28.558594 52.417969 29.042969 52.523438 29.484375 52.675781 C 29.664062 52.734375 29.839844 53.023438 29.84375 53.214844 C 29.855469 53.59375 28.796875 54.140625 28.410156 53.96875 C 27.957031 53.769531 27.527344 53.519531 27.085938 53.296875 C 27.011719 53.257812 26.925781 53.21875 26.847656 53.214844 C 25.519531 53.207031 24.167969 53.0625 22.871094 53.238281 C 21.773438 53.386719 20.726562 53.871094 19.6875 54.265625 C 18.414062 54.757812 17.507812 55.6875 16.601562 56.570312 C 16.117188 57.042969 15.960938 57.726562 15.878906 58.390625 C 15.765625 59.304688 15.527344 60.214844 16.015625 61.109375 C 16.089844 61.246094 15.960938 61.472656 15.941406 61.585938 C 16.28125 62.160156 16.59375 62.714844 16.9375 63.253906 C 17.523438 64.183594 18.132812 65.066406 19.152344 65.722656 C 21.265625 67.078125 23.585938 67.664062 26.179688 67.699219 C 28.257812 67.726562 30.050781 67.074219 31.832031 66.273438 C 32.011719 66.191406 32.242188 66.199219 32.449219 66.167969 C 32.460938 66.375 32.527344 66.589844 32.476562 66.78125 C 32.289062 67.460938 31.824219 67.722656 30.996094 67.832031 C 30.058594 67.960938 29.152344 68.292969 28.175781 68.3125 C 27.851562 68.320312 27.527344 68.378906 27.152344 68.4375 Z M 27.152344 68.4375 "/>
<path style=" stroke:none;fill-rule:nonzero;fill:rgb(26.27451%,12.156863%,7.843137%);fill-opacity:1;" d="M 217.101562 53.804688 C 216.871094 53.785156 216.695312 53.742188 216.527344 53.75 C 216.347656 53.761719 216.027344 53.8125 216.019531 53.871094 C 215.96875 54.339844 215.445312 54.757812 215.800781 55.273438 C 215.855469 55.355469 215.898438 55.472656 215.875 55.558594 C 215.671875 56.265625 216.28125 56.371094 216.773438 56.386719 C 218.722656 56.449219 220.675781 56.453125 222.628906 56.476562 C 223.492188 56.488281 224.355469 56.542969 225.210938 56.492188 C 225.859375 56.453125 226.5 56.277344 227.140625 56.164062 C 227.367188 56.125 227.59375 56.089844 227.863281 56.042969 C 227.582031 56.871094 226.761719 57.394531 225.953125 57.335938 C 224.378906 57.222656 222.804688 57.113281 221.234375 57.003906 C 221.210938 57 221.183594 56.988281 221.167969 56.996094 C 219.664062 57.597656 218.089844 57.042969 216.558594 57.21875 C 216.125 57.269531 215.851562 57.375 215.859375 57.820312 C 215.871094 58.601562 215.878906 59.382812 215.832031 60.164062 C 215.800781 60.6875 215.65625 61.203125 215.59375 61.726562 C 215.574219 61.886719 215.652344 62.054688 215.683594 62.222656 C 215.742188 62.5 215.835938 62.777344 215.851562 63.054688 C 215.914062 64.289062 215.9375 65.527344 216.011719 66.761719 C 216.039062 67.195312 215.882812 67.472656 215.4375 67.640625 C 214.882812 67.847656 214.328125 68.058594 213.683594 68.304688 C 213.65625 68.015625 213.558594 67.75 213.632812 67.53125 C 214.054688 66.292969 213.808594 64.996094 214.074219 63.738281 C 214.242188 62.933594 214.15625 62.097656 214.046875 61.273438 C 213.953125 60.558594 213.898438 59.839844 213.878906 59.117188 C 213.867188 58.820312 214.011719 58.519531 214.050781 58.214844 C 214.070312 58.0625 214.035156 57.894531 213.980469 57.746094 C 213.929688 57.601562 213.71875 57.449219 213.753906 57.347656 C 213.984375 56.640625 213.683594 55.925781 213.8125 55.230469 C 213.882812 54.851562 213.996094 54.535156 213.617188 54.203125 C 213.367188 53.988281 213.230469 53.65625 213.097656 53.355469 C 213.066406 53.292969 213.25 53.089844 213.375 53.046875 C 214.746094 52.601562 216.117188 52.460938 217.574219 52.824219 C 218.460938 53.046875 219.429688 53.101562 220.355469 53.078125 C 221.832031 53.042969 223.304688 52.878906 224.777344 52.777344 C 225.125 52.753906 225.476562 52.773438 225.828125 52.773438 C 225.703125 53.363281 225.003906 53.917969 224.265625 53.898438 C 222.371094 53.851562 220.480469 53.734375 218.585938 53.675781 C 218.113281 53.660156 217.636719 53.753906 217.101562 53.804688 Z M 217.101562 53.804688 "/>
<path style=" stroke:none;fill-rule:nonzero;fill:rgb(25.882353%,12.156863%,7.45098%);fill-opacity:1;" d="M 232.808594 53.789062 C 231.632812 53.792969 230.519531 53.773438 229.410156 53.820312 C 228.878906 53.839844 228.355469 53.980469 227.648438 54.097656 C 227.699219 53.773438 227.644531 53.46875 227.789062 53.316406 C 228.429688 52.640625 229.296875 52.011719 230.257812 52.320312 C 231.234375 52.636719 232.1875 52.25 233.171875 52.621094 C 234.054688 52.957031 235.171875 52.777344 236.171875 52.894531 C 237.183594 53.015625 238.179688 53.242188 239.1875 53.390625 C 239.546875 53.445312 239.929688 53.433594 240.296875 53.402344 C 240.773438 53.363281 241.238281 53.253906 241.714844 53.21875 C 242.667969 53.144531 243.625 53.113281 244.578125 53.039062 C 244.832031 53.015625 245.066406 52.863281 245.320312 52.816406 C 245.523438 52.777344 245.742188 52.808594 246.019531 52.808594 C 245.292969 53.945312 243.96875 54.484375 242.625 54.292969 C 242.296875 54.246094 241.957031 54.277344 241.625 54.265625 C 240.480469 54.230469 239.339844 54.179688 238.195312 54.167969 C 238.085938 54.167969 237.890625 54.382812 237.875 54.511719 C 237.804688 55.113281 237.796875 55.722656 237.726562 56.324219 C 237.6875 56.671875 237.566406 57.015625 237.457031 57.464844 C 237.949219 57.988281 237.902344 59.046875 237.21875 59.914062 C 237.382812 60.03125 237.550781 60.148438 237.71875 60.261719 C 237.667969 60.277344 237.617188 60.292969 237.566406 60.304688 C 237.625 60.574219 237.695312 60.835938 237.738281 61.105469 C 237.78125 61.375 237.828125 61.648438 237.824219 61.917969 C 237.808594 62.605469 237.765625 63.289062 237.734375 63.976562 C 237.722656 64.328125 237.894531 64.710938 237.417969 64.960938 C 237.335938 65.003906 237.332031 65.355469 237.429688 65.429688 C 237.914062 65.8125 237.859375 66.308594 237.867188 66.796875 C 237.867188 66.835938 237.871094 66.875 237.867188 66.914062 C 237.859375 67.191406 237.976562 67.617188 237.816406 67.722656 C 237.289062 68.082031 236.671875 68.34375 236.0625 68.597656 C 236 68.625 235.640625 68.347656 235.644531 68.214844 C 235.691406 66.976562 235.769531 65.734375 235.882812 64.496094 C 235.925781 64.046875 236.097656 63.609375 236.199219 63.164062 C 236.214844 63.082031 236.210938 62.984375 236.179688 62.90625 C 235.878906 62.21875 236.089844 61.5 236.003906 60.804688 C 235.878906 59.785156 236.21875 58.765625 235.789062 57.722656 C 235.492188 57.007812 235.519531 56.164062 235.535156 55.375 C 235.542969 54.980469 235.851562 54.59375 236.089844 54.050781 C 235.03125 53.964844 233.953125 53.878906 232.808594 53.789062 Z M 232.808594 53.789062 "/>
<path style=" stroke:none;fill-rule:nonzero;fill:rgb(75.686275%,68.627451%,37.254902%);fill-opacity:1;" d="M 121.953125 45.875 C 121.960938 45.898438 121.949219 45.933594 121.898438 45.964844 C 121.875 45.925781 121.898438 45.902344 121.953125 45.875 Z M 121.953125 45.875 "/>
<path style=" stroke:none;fill-rule:nonzero;fill:rgb(99.607843%,99.607843%,99.607843%);fill-opacity:1;" d="M 126.125 102.28125 C 126.128906 104.464844 126.128906 106.589844 126.128906 108.851562 C 125.019531 107.867188 124.085938 106.914062 123.003906 106.117188 C 121.878906 105.285156 121.566406 104.339844 121.578125 103.054688 C 121.757812 86.605469 121.867188 70.160156 121.996094 53.710938 C 121.996094 53.613281 122.003906 53.515625 122.011719 53.378906 C 125.675781 53.378906 129.328125 53.378906 133.035156 53.378906 C 133.046875 53.527344 133.070312 53.695312 133.070312 53.863281 C 133.066406 70.589844 133.0625 87.316406 133.039062 104.039062 C 133.039062 104.316406 132.882812 104.65625 132.671875 104.855469 C 131.484375 105.964844 130.257812 107.042969 128.890625 108.265625 C 128.890625 107.59375 128.890625 107.109375 128.890625 106.628906 C 128.902344 90.300781 128.914062 73.976562 128.925781 57.648438 C 128.925781 57.46875 128.933594 57.292969 128.925781 57.113281 C 128.890625 56.347656 128.304688 55.8125 127.519531 55.820312 C 126.726562 55.828125 126.148438 56.367188 126.144531 57.136719 C 126.132812 59.410156 126.140625 61.679688 126.136719 63.949219 C 126.132812 76.707031 126.128906 89.464844 126.125 102.28125 Z M 126.125 102.28125 "/>
<path style=" stroke:none;fill-rule:nonzero;fill:rgb(99.215686%,89.803922%,20.784314%);fill-opacity:1;" d="M 131.039062 26.285156 C 129.90625 27.292969 128.796875 28.257812 127.710938 29.246094 C 127.359375 29.570312 127.101562 29.597656 126.726562 29.261719 C 124.78125 27.503906 122.820312 25.761719 120.847656 24.027344 C 120.484375 23.707031 120.457031 23.484375 120.835938 23.152344 C 122.8125 21.421875 124.773438 19.679688 126.722656 17.921875 C 127.097656 17.585938 127.351562 17.613281 127.710938 17.933594 C 129.660156 19.6875 131.617188 21.433594 133.59375 23.167969 C 133.972656 23.5 133.9375 23.734375 133.574219 24.046875 C 132.726562 24.769531 131.90625 25.519531 131.039062 26.285156 Z M 131.039062 26.285156 "/>
<path style=" stroke:none;fill-rule:nonzero;fill:rgb(99.607843%,90.588235%,20.784314%);fill-opacity:1;" d="M 109.265625 51.382812 C 109.984375 50.480469 110.683594 49.570312 111.441406 48.695312 C 111.589844 48.523438 111.960938 48.433594 112.230469 48.433594 C 118.273438 48.425781 124.3125 48.4375 130.351562 48.441406 C 134.550781 48.445312 138.746094 48.453125 142.941406 48.445312 C 143.386719 48.441406 143.671875 48.5625 143.953125 48.863281 C 144.792969 49.78125 145.671875 50.671875 146.523438 51.636719 C 146.496094 51.71875 146.480469 51.738281 146.464844 51.757812 C 145.03125 50.90625 143.429688 50.863281 141.765625 50.867188 C 131.601562 50.890625 121.4375 50.875 111.273438 50.84375 C 110.539062 50.839844 110.023438 51.164062 109.382812 51.433594 C 109.3125 51.417969 109.265625 51.382812 109.265625 51.382812 Z M 109.265625 51.382812 "/>
<path style=" stroke:none;fill-rule:nonzero;fill:rgb(87.45098%,20%,5.098039%);fill-opacity:1;" d="M 130.296875 36.503906 C 130.296875 39.675781 130.296875 42.789062 130.296875 45.941406 C 128.441406 45.941406 126.65625 45.941406 124.832031 45.941406 C 124.832031 41.003906 124.832031 36.085938 124.832031 31.117188 C 126.855469 32.613281 128.601562 32.140625 130.296875 30.4375 C 130.296875 32.5625 130.296875 34.503906 130.296875 36.503906 Z M 130.296875 36.503906 "/>
<path style=" stroke:none;fill-rule:nonzero;fill:rgb(99.607843%,90.588235%,20.784314%);fill-opacity:1;" d="M 146.535156 51.675781 C 146.589844 51.691406 146.617188 51.730469 146.644531 51.773438 C 146.609375 51.78125 146.570312 51.789062 146.5 51.777344 C 146.480469 51.738281 146.496094 51.71875 146.535156 51.675781 Z M 146.535156 51.675781 "/>
<path style=" stroke:none;fill-rule:nonzero;fill:rgb(99.607843%,90.588235%,20.784314%);fill-opacity:1;" d="M 109.335938 51.4375 C 109.316406 51.480469 109.273438 51.503906 109.226562 51.523438 C 109.222656 51.492188 109.21875 51.460938 109.242188 51.40625 C 109.265625 51.382812 109.3125 51.417969 109.335938 51.4375 Z M 109.335938 51.4375 "/>
<path style=" stroke:none;fill-rule:nonzero;fill:rgb(87.45098%,79.215686%,42.745098%);fill-opacity:1;" d="M 78.125 67.542969 C 77.207031 67.542969 76.351562 67.542969 75.4375 67.542969 C 75.5 67.320312 75.503906 67.222656 75.535156 67.214844 C 76.285156 67.011719 76.113281 66.566406 75.984375 66.066406 C 75.882812 65.652344 75.929688 65.207031 75.929688 64.777344 C 75.929688 64.449219 76.042969 64.109375 75.597656 63.894531 C 75.527344 63.859375 75.578125 63.574219 75.621094 63.414062 C 75.695312 63.144531 75.882812 62.890625 75.890625 62.625 C 75.921875 61.589844 75.914062 60.546875 75.890625 59.511719 C 75.882812 59.125 75.773438 58.742188 75.746094 58.355469 C 75.730469 58.136719 75.789062 57.917969 75.816406 57.648438 C 75.632812 57.550781 75.394531 57.417969 75.15625 57.289062 C 75.789062 56.941406 75.875 56.691406 75.753906 56.191406 C 75.605469 55.597656 75.742188 54.945312 75.773438 54.316406 C 75.800781 53.804688 76.160156 53.597656 76.703125 53.59375 C 78.078125 53.585938 79.410156 53.671875 80.734375 54.125 C 81.648438 54.441406 82.707031 54.410156 83.664062 54.648438 C 84.378906 54.824219 85.03125 55.191406 85.726562 55.445312 C 86.167969 55.605469 86.632812 55.714844 87.085938 55.847656 C 87.167969 55.871094 87.292969 55.863281 87.332031 55.910156 C 87.976562 56.683594 88.996094 57.117188 89.429688 58.132812 C 90.015625 59.5 89.417969 60.613281 88.941406 61.800781 C 88.867188 61.992188 88.835938 62.195312 88.773438 62.425781 C 88.511719 62.664062 88.175781 62.960938 87.851562 63.265625 C 87.257812 63.824219 86.734375 64.453125 86.066406 64.929688 C 85.351562 65.433594 84.554688 65.886719 83.714844 66.1875 C 82.300781 66.695312 80.832031 67.078125 79.375 67.472656 C 79.003906 67.574219 78.585938 67.523438 78.125 67.542969 Z M 78.125 67.542969 "/>
<path style=" stroke:none;fill-rule:nonzero;fill:rgb(87.45098%,79.215686%,42.745098%);fill-opacity:1;" d="M 180.894531 59.015625 C 180.070312 59.453125 179.238281 59.152344 178.445312 59.121094 C 178.039062 59.105469 177.757812 58.800781 177.820312 58.308594 C 177.878906 57.828125 178.1875 57.238281 177.449219 56.890625 C 177.390625 56.863281 177.34375 56.671875 177.382812 56.632812 C 177.964844 56.089844 177.675781 55.4375 177.675781 54.828125 C 177.679688 53.714844 177.800781 53.53125 179.058594 53.421875 C 180.132812 53.332031 181.21875 53.328125 182.296875 53.277344 C 182.460938 53.269531 182.621094 53.203125 182.78125 53.171875 C 182.917969 53.148438 183.078125 53.085938 183.191406 53.125 C 183.671875 53.28125 184.128906 53.5 184.617188 53.636719 C 185.214844 53.804688 186.023438 54.382812 185.953125 54.816406 C 185.859375 55.398438 185.601562 55.96875 185.363281 56.527344 C 185.285156 56.714844 184.996094 56.832031 184.902344 57.023438 C 184.246094 58.292969 182.800781 58.484375 181.574219 58.964844 C 181.394531 59.035156 181.15625 58.992188 180.894531 59.015625 Z M 180.894531 59.015625 "/>
<path style=" stroke:none;fill-rule:nonzero;fill:rgb(87.45098%,79.215686%,42.745098%);fill-opacity:1;" d="M 65.058594 54.3125 C 65.402344 54.886719 65.226562 55.988281 64.742188 56.496094 C 64.585938 56.664062 64.375 56.800781 64.261719 56.984375 C 63.425781 58.316406 61.984375 58.652344 60.457031 58.976562 C 59.6875 59.140625 58.96875 59.21875 58.195312 59.171875 C 57.382812 59.121094 57.152344 58.914062 57.175781 58.207031 C 57.1875 57.757812 57.507812 57.207031 56.796875 56.902344 C 56.734375 56.871094 56.691406 56.644531 56.742188 56.597656 C 57.296875 56.066406 56.976562 55.433594 57.011719 54.847656 C 57.042969 54.34375 56.898438 53.789062 57.605469 53.546875 C 57.824219 53.472656 58.070312 53.4375 58.304688 53.425781 C 59.429688 53.371094 60.554688 53.335938 61.679688 53.28125 C 61.835938 53.273438 61.988281 53.171875 62.148438 53.144531 C 62.28125 53.121094 62.441406 53.109375 62.5625 53.152344 C 62.894531 53.273438 63.21875 53.421875 63.539062 53.570312 C 64.039062 53.800781 64.53125 54.039062 65.058594 54.3125 Z M 65.058594 54.3125 "/>
<path style=" stroke:none;fill-rule:nonzero;fill:rgb(87.058824%,78.823529%,42.745098%);fill-opacity:1;" d="M 197.546875 62.101562 C 197.308594 62.046875 197.125 61.996094 196.894531 61.929688 C 198.113281 59.378906 199.480469 56.941406 201.015625 54.386719 C 201.304688 54.71875 201.554688 54.984375 201.78125 55.269531 C 202.214844 55.816406 202.257812 56.605469 203.089844 56.90625 C 203.160156 56.933594 203.21875 57.070312 203.21875 57.15625 C 203.222656 57.886719 203.792969 58.375 204.117188 58.976562 C 204.492188 59.675781 205.445312 60.058594 205.429688 60.945312 C 205.425781 60.984375 205.445312 61.023438 205.46875 61.058594 C 205.839844 61.667969 205.765625 61.777344 204.941406 61.859375 C 203.882812 61.960938 202.824219 62.09375 201.765625 62.167969 C 201.203125 62.207031 200.628906 62.140625 200.0625 62.128906 C 199.242188 62.117188 198.425781 62.113281 197.546875 62.101562 Z M 197.546875 62.101562 "/>
<path style=" stroke:none;fill-rule:nonzero;fill:rgb(87.058824%,78.823529%,42.745098%);fill-opacity:1;" d="M 38.46875 61.285156 C 38.480469 61.128906 38.480469 60.996094 38.542969 60.894531 C 38.640625 60.742188 38.867188 60.617188 38.886719 60.46875 C 39.015625 59.375 39.949219 58.625 40.382812 57.660156 C 40.867188 56.582031 41.515625 55.5625 42.179688 54.363281 C 42.488281 54.703125 42.738281 54.953125 42.953125 55.21875 C 43.402344 55.78125 43.445312 56.59375 44.292969 56.910156 C 44.367188 56.9375 44.421875 57.074219 44.421875 57.160156 C 44.425781 57.890625 44.851562 58.4375 45.355469 58.96875 C 45.574219 59.207031 45.625 59.679688 45.875 59.769531 C 46.703125 60.066406 46.324219 60.992188 47.003906 61.332031 C 47.027344 61.34375 46.964844 61.613281 46.882812 61.648438 C 46.648438 61.75 46.386719 61.820312 46.128906 61.851562 C 45.070312 61.972656 44.015625 62.125 42.953125 62.167969 C 41.964844 62.207031 40.972656 62.109375 39.984375 62.085938 C 39.375 62.070312 38.769531 62.082031 37.96875 62.082031 C 38.226562 61.707031 38.359375 61.515625 38.46875 61.285156 Z M 38.46875 61.285156 "/>
</g>
</svg>
