<svg version="1.1" id="Layer_1" xmlns="http://www.w3.org/2000/svg" xmlns:xlink="http://www.w3.org/1999/xlink" x="0px" y="0px"
	 width="100%" viewBox="0 0 2048 2048" enable-background="new 0 0 2048 2048" xml:space="preserve">
<path fill="#010101" opacity="1.000000" stroke="none" 
	d="
M2049.000000,714.000000 
	C2049.000000,1159.333374 2049.000000,1604.166626 2049.000000,2049.000000 
	C1366.333374,2049.000000 683.666687,2049.000000 1.000000,2049.000000 
	C1.000000,1366.333374 1.000000,683.666687 1.000000,1.000000 
	C683.666687,1.000000 1366.333374,1.000000 2049.000000,1.000000 
	C2049.000000,238.500000 2049.000000,476.000000 2049.000000,714.000000 
M492.395569,1206.057007 
	C486.234009,1193.491211 479.890747,1181.010864 473.939911,1168.346069 
	C430.317108,1075.506470 397.890533,978.885254 376.271118,878.621582 
	C362.160858,813.182861 352.836792,747.088440 349.259308,680.225708 
	C348.514435,666.303589 346.766968,669.508606 358.946350,665.373108 
	C416.602081,645.796021 473.128052,623.516724 527.437500,595.842773 
	C570.788086,573.753113 611.850403,548.268982 647.874268,515.220154 
	C678.398926,487.216370 705.599304,456.258820 730.565735,423.251740 
	C754.010010,392.256989 775.250488,359.821045 794.759583,326.237885 
	C800.152039,316.955292 800.015320,316.717133 810.121948,318.876617 
	C859.245911,329.372742 908.774109,336.932770 958.995300,339.422974 
	C997.020386,341.308411 1034.962646,340.611328 1072.722534,335.203888 
	C1115.864502,329.025726 1157.171875,316.190704 1197.686890,300.563995 
	C1253.606934,278.995514 1307.268799,252.646194 1359.463013,223.291809 
	C1364.628906,220.386429 1366.989380,222.170822 1370.298706,225.516357 
	C1411.360718,267.029175 1449.067505,311.404144 1483.908081,358.237823 
	C1487.136841,362.577881 1490.404419,366.888947 1493.900269,371.541382 
	C1495.728882,369.879120 1496.989136,368.828094 1498.143066,367.670898 
	C1536.500732,329.200775 1574.847290,290.719635 1613.198486,252.242966 
	C1618.536743,246.887161 1618.608398,246.844482 1614.098022,240.985931 
	C1598.960938,221.324356 1584.151001,201.395660 1568.533081,182.122375 
	C1526.111084,129.771210 1480.933838,79.962547 1429.953979,35.712498 
	C1412.452881,20.521835 1392.105591,16.053278 1370.321411,24.397667 
	C1359.711548,28.461739 1350.029785,35.040215 1340.104370,40.785240 
	C1282.341919,74.219307 1222.857056,104.055763 1160.743408,128.672699 
	C1097.616821,153.691086 1032.579834,166.750076 964.448975,163.828690 
	C896.527344,160.916245 830.003540,149.741806 764.398315,132.294891 
	C756.450928,130.181381 747.950684,128.403000 739.857971,128.905396 
	C715.287354,130.430695 699.120544,144.170654 688.163330,165.825516 
	C659.878967,221.724167 625.985779,274.043335 586.759155,322.951569 
	C543.903564,376.384430 492.365234,418.821808 431.122528,449.771515 
	C361.573883,484.918701 289.074188,512.316833 214.633896,534.937134 
	C207.859970,536.995544 200.996063,539.711792 195.107285,543.553284 
	C176.214294,555.878113 168.405167,574.205994 168.212494,596.330566 
	C167.507553,677.273926 176.258820,757.332703 190.568558,836.875427 
	C207.521057,931.108459 233.153122,1022.928589 267.016785,1112.480347 
	C300.111206,1199.997925 340.819733,1283.796631 389.098969,1363.937378 
	C391.259277,1367.523438 392.718719,1367.835327 395.738403,1364.828491 
	C433.882385,1326.847168 472.089447,1288.928955 510.393005,1251.108521 
	C513.486816,1248.053711 513.561707,1245.679321 511.527527,1242.012939 
	C505.062866,1230.360596 498.977448,1218.497925 492.395569,1206.057007 
M1700.109131,1277.529419 
	C1679.008057,1371.743408 1649.274048,1463.232300 1613.300171,1552.757446 
	C1592.977661,1603.332642 1571.267700,1653.325684 1546.542114,1701.882080 
	C1524.100464,1745.953125 1500.049194,1789.204712 1476.716309,1832.822266 
	C1473.023682,1839.724976 1474.225098,1840.676392 1463.844971,1838.189819 
	C1435.337036,1831.360962 1406.702393,1825.021118 1378.337036,1817.644653 
	C1296.993164,1796.491211 1217.131836,1770.669800 1138.800903,1740.170532 
	C1082.567749,1718.275391 1027.177856,1694.390747 973.685547,1666.445190 
	C939.160645,1648.408691 905.208801,1629.219238 871.543640,1609.613281 
	C850.840271,1597.556030 831.119995,1583.802612 811.064270,1570.649292 
	C807.797668,1568.506958 805.638672,1568.566528 802.972839,1571.510254 
	C798.727539,1576.197754 794.105225,1580.544312 789.634460,1585.027222 
	C757.394104,1617.353516 725.186035,1649.712036 692.856567,1681.948975 
	C689.668701,1685.127686 688.878235,1686.887207 693.278503,1689.801025 
	C703.407043,1696.508057 713.061279,1703.926514 723.107178,1710.763672 
	C765.956787,1739.927856 810.103882,1766.970703 855.497803,1792.012329 
	C905.721680,1819.718018 957.170227,1844.925781 1009.647034,1868.019531 
	C1065.793823,1892.728394 1122.931274,1914.957764 1180.936646,1934.930420 
	C1242.716675,1956.202637 1305.200073,1975.132324 1368.486572,1991.428101 
	C1418.197876,2004.228271 1468.154907,2015.914551 1518.786133,2024.429443 
	C1539.843384,2027.970947 1558.705444,2021.945068 1572.099487,2005.156372 
	C1582.422974,1992.216309 1591.153198,1977.840088 1599.343628,1963.394653 
	C1621.930908,1923.557861 1644.364990,1883.617188 1665.926880,1843.219727 
	C1692.845947,1792.784912 1716.815186,1740.887451 1739.424194,1688.388672 
	C1764.411011,1630.368530 1787.099976,1571.454712 1807.119751,1511.518677 
	C1839.756958,1413.807617 1865.198242,1314.347168 1880.430298,1212.374634 
	C1890.912476,1142.201538 1896.390381,1071.679565 1895.224609,1000.698364 
	C1894.438354,952.822998 1890.612183,905.199585 1883.359497,857.849731 
	C1875.139771,804.186890 1861.560059,751.833130 1845.551636,700.037109 
	C1825.150879,634.029419 1800.271851,569.759033 1771.263550,507.072784 
	C1770.471558,505.361267 1769.436646,503.762238 1768.373535,501.857452 
	C1767.145874,502.787109 1766.431030,503.206512 1765.865112,503.774261 
	C1725.155151,544.608093 1684.467651,585.464417 1643.729370,626.270020 
	C1641.468506,628.534424 1641.528687,630.530457 1642.643799,633.400818 
	C1654.587402,664.144043 1667.169312,694.671204 1678.027588,725.797729 
	C1702.078491,794.741638 1720.100464,865.118103 1726.520874,938.186523 
	C1731.775269,997.985168 1731.151489,1057.689209 1725.682983,1117.388916 
	C1720.767212,1171.053345 1711.863403,1224.099121 1700.109131,1277.529419 
M695.661133,1578.162109 
	C912.778320,1360.202148 1129.895630,1142.242310 1347.012451,924.281921 
	C1351.524292,919.752563 1351.525391,919.744690 1346.789917,915.026489 
	C1282.461182,850.932251 1218.131226,786.839172 1153.801025,722.746460 
	C1148.966309,717.929565 1148.963501,717.931152 1144.178223,722.679871 
	C1020.573853,845.340759 896.969055,968.001160 773.365295,1090.662842 
	C613.798645,1249.013428 454.236481,1407.368530 294.664886,1565.714233 
	C227.123260,1632.736816 159.546661,1699.724243 92.092613,1766.834839 
	C90.185707,1768.731934 88.405640,1771.847900 88.397598,1774.401245 
	C88.235428,1825.897949 88.338364,1877.395508 88.415123,1928.892822 
	C88.417091,1930.211792 88.724495,1931.530273 89.001846,1933.747437 
	C91.136871,1931.757324 92.493912,1930.570435 93.764183,1929.296875 
	C129.541748,1893.427368 165.325455,1857.563965 201.078186,1821.669678 
	C344.319000,1677.862915 487.546051,1534.042358 630.785217,1390.233765 
	C786.610657,1233.788940 942.441101,1077.348999 1098.278076,920.915649 
	C1115.801880,903.324829 1133.073120,885.465759 1151.052368,868.351929 
	C1161.970337,857.959412 1175.433350,856.327454 1189.151123,862.354675 
	C1202.553589,868.243408 1209.463257,879.218018 1210.212036,893.763550 
	C1210.852295,906.202515 1204.569580,915.500549 1196.114380,923.980042 
	C1075.751221,1044.689819 955.467834,1165.479126 835.170837,1286.254761 
	C719.577820,1402.307617 604.001465,1518.377075 488.399231,1634.420654 
	C377.970642,1745.270752 267.517944,1856.096802 157.083328,1966.940796 
	C155.862549,1968.166260 154.742828,1969.492432 153.575897,1970.771484 
	C153.735931,1971.217896 153.895950,1971.664307 154.055984,1972.110718 
	C156.118607,1972.110718 158.181259,1972.114990 160.243866,1972.109985 
	C205.408112,1972.001953 250.572617,1971.792725 295.736267,1971.910522 
	C301.390808,1971.925293 305.266571,1970.198730 309.216003,1966.228516 
	C437.795746,1836.971436 566.487488,1707.825806 695.661133,1578.162109 
M1461.268188,1573.219116 
	C1429.559326,1501.265991 1397.866821,1429.305664 1366.137207,1357.361694 
	C1331.246704,1278.250732 1296.324585,1199.153931 1261.395142,1120.060181 
	C1260.635498,1118.339966 1259.620605,1116.732544 1258.428589,1114.523682 
	C1256.391968,1116.471802 1254.941650,1117.795532 1253.561890,1119.188965 
	C1240.197510,1132.684937 1226.886963,1146.234375 1213.480957,1159.688843 
	C1180.781860,1192.506226 1148.068359,1225.309814 1115.265259,1258.023193 
	C1112.407104,1260.873535 1111.600708,1263.182617 1113.368652,1267.144531 
	C1129.933716,1304.264526 1146.281982,1341.481323 1162.671875,1378.679443 
	C1179.330078,1416.486572 1195.942261,1454.313965 1212.615479,1492.114258 
	C1229.625122,1530.677246 1246.705322,1569.209229 1263.716797,1607.771362 
	C1281.534912,1648.161865 1299.247314,1688.599243 1317.247681,1728.908203 
	C1318.356445,1731.390991 1321.277954,1734.014893 1323.869751,1734.741943 
	C1360.590942,1745.040894 1397.423706,1754.942505 1434.162598,1765.179688 
	C1438.890625,1766.497070 1441.237427,1765.042969 1443.268188,1761.057251 
	C1460.506104,1727.223999 1477.798950,1693.418457 1495.177246,1659.657227 
	C1496.866211,1656.375854 1496.831299,1653.589722 1495.333374,1650.236694 
	C1483.986938,1624.837280 1472.803711,1599.364868 1461.268188,1573.219116 
M1432.222900,899.276917 
	C1490.198608,957.024719 1548.194092,1014.752502 1606.081909,1072.588257 
	C1608.573975,1075.078003 1610.767212,1078.320557 1611.917847,1081.624146 
	C1618.268677,1099.859253 1624.241699,1118.225708 1630.386230,1136.533081 
	C1630.784668,1137.720337 1631.532593,1138.790405 1632.117920,1139.914917 
	C1633.271484,1138.767944 1633.484131,1137.988159 1633.544800,1137.196655 
	C1636.669434,1096.502808 1639.728638,1055.803955 1642.967407,1015.119324 
	C1643.329346,1010.575317 1642.123657,1007.367737 1638.847900,1004.111389 
	C1556.580933,922.332764 1474.411255,840.456604 1392.235596,758.586304 
	C1283.023560,649.780212 1173.811523,540.973877 1064.666992,432.100098 
	C1061.918213,429.358154 1059.342529,428.217621 1055.432495,428.921356 
	C1039.382080,431.810028 1023.285583,434.443115 1007.202637,437.150574 
	C988.662781,440.271637 970.117126,443.358215 951.583557,446.516418 
	C950.502441,446.700714 949.507812,447.392456 947.519958,448.267548 
	C959.733704,451.288544 970.658813,454.281677 981.723694,456.611145 
	C987.713745,457.872253 992.223816,460.724701 996.501038,464.990906 
	C1141.522949,609.638367 1286.629272,754.201294 1432.222900,899.276917 
M1728.248291,281.499969 
	C1728.270020,291.497833 1728.283813,301.495758 1728.315796,311.493591 
	C1728.354614,323.617371 1730.912476,326.182648 1742.977173,326.170013 
	C1816.794067,326.092743 1890.611084,326.011780 1964.427979,325.926788 
	C1975.502686,325.914032 1978.312378,323.116028 1978.307861,312.038818 
	C1978.277832,238.055222 1978.240234,164.071609 1978.192993,90.088013 
	C1978.185913,78.895218 1974.895142,75.678696 1963.526733,75.706024 
	C1889.709961,75.883469 1815.893188,76.067078 1742.076416,76.254776 
	C1730.856934,76.283302 1727.955811,79.208771 1727.970825,90.542229 
	C1728.055054,153.861465 1728.153442,217.180710 1728.248291,281.499969 
M1674.180054,366.288147 
	C1661.740479,350.156189 1656.507935,331.635590 1656.832764,309.936920 
	C1654.236816,312.393280 1652.803345,313.680634 1651.446045,315.043915 
	C1596.304688,370.426056 1541.187622,425.832428 1486.029175,481.197632 
	C1442.510132,524.879578 1398.968872,568.539551 1355.338623,612.110229 
	C1352.118652,615.325806 1351.455078,617.306763 1355.082642,620.893982 
	C1386.246338,651.712280 1417.211548,682.731079 1448.246948,713.679077 
	C1449.391724,714.820557 1450.647583,715.850708 1452.340820,717.372498 
	C1558.225830,611.042969 1663.844482,504.980835 1769.463257,398.918671 
	C1769.123535,398.380341 1768.783813,397.841980 1768.444092,397.303650 
	C1766.322144,397.303650 1764.199707,397.336090 1762.078491,397.298309 
	C1749.589355,397.075867 1736.934326,398.036896 1724.649292,396.333557 
	C1704.219971,393.500977 1687.713257,382.753052 1674.180054,366.288147 
M849.040588,497.562592 
	C846.950562,497.019867 844.878784,496.390259 842.767761,495.947815 
	C822.148254,491.626556 806.457458,481.171661 799.430908,460.429535 
	C797.713135,455.358734 797.213623,449.875214 796.074036,444.181854 
	C795.314758,444.837738 794.630676,445.254822 794.175415,445.847626 
	C785.763611,456.800842 777.258362,467.687042 769.128784,478.846771 
	C768.003845,480.391022 767.960876,483.658295 768.775208,485.540253 
	C781.080078,513.978333 793.596741,542.324890 806.094482,570.679321 
	C825.311951,614.279175 844.560242,657.865540 863.781921,701.463562 
	C880.650330,739.724182 897.490479,777.997314 914.366455,816.254639 
	C917.690918,823.791199 921.121826,831.280823 924.773376,839.391235 
	C926.656433,837.685913 927.903442,836.637451 929.059814,835.497131 
	C944.247620,820.520142 959.459412,805.567261 974.593201,790.535889 
	C1005.691101,759.648560 1036.670166,728.640747 1067.913574,697.901611 
	C1071.803711,694.074280 1072.308105,691.006653 1070.133545,686.197754 
	C1059.974121,663.731018 1049.838989,641.244019 1040.288818,618.514832 
	C1035.671753,607.526550 1029.270996,598.272034 1020.704651,589.993286 
	C1001.172424,571.116699 981.989136,551.870483 962.987915,532.457581 
	C956.961548,526.300659 950.784607,521.432251 941.858276,520.563904 
	C937.605103,520.150146 933.465698,518.574219 929.272888,517.532166 
	C902.793823,510.951111 876.314270,504.372131 849.040588,497.562592 
M599.318787,1040.884521 
	C586.815430,1046.378052 574.310181,1051.867188 561.809021,1057.365967 
	C544.884888,1064.810303 527.985962,1072.312866 511.022705,1079.666992 
	C507.707275,1081.104370 506.637177,1082.904785 508.522034,1086.166504 
	C509.098389,1087.163818 509.323395,1088.357300 509.818970,1089.409302 
	C525.786682,1123.303955 541.751465,1157.200073 557.780457,1191.065796 
	C558.964783,1193.568237 560.625427,1195.844971 562.689026,1199.260010 
	C648.000427,1114.552856 732.778992,1030.374756 817.557495,946.196777 
	C817.236328,945.800049 816.915161,945.403320 816.593994,945.006592 
	C744.398193,976.859314 672.202393,1008.711975 599.318787,1040.884521 
M1512.630493,777.869019 
	C1527.837036,793.033203 1543.036133,808.204773 1558.259033,823.352600 
	C1560.235474,825.319397 1562.018433,827.660828 1565.508057,826.107178 
	C1586.639771,816.699158 1607.797485,807.348938 1628.972412,798.038574 
	C1631.636108,796.867493 1632.312012,795.266541 1631.348877,792.520325 
	C1618.523071,755.944946 1605.758667,719.348083 1592.935547,682.771667 
	C1592.592651,681.793457 1591.761963,680.986206 1591.158691,680.099243 
	C1591.413940,680.547607 1591.669189,680.995972 1591.924438,681.444336 
	C1562.595459,710.554932 1533.266479,739.665527 1503.365356,769.344055 
	C1506.003052,771.758850 1509.066772,774.563843 1512.630493,777.869019 
M841.394287,390.053986 
	C831.882446,387.785309 829.278809,389.023224 827.981812,396.629120 
	C834.144958,395.157074 840.216003,393.707031 846.287048,392.256989 
	C846.284668,391.933472 846.282227,391.609955 846.279846,391.286438 
	C844.915039,390.917999 843.550293,390.549561 841.394287,390.053986 
z"/>
<path fill="#2FC1E3" opacity="1.000000" stroke="none" 
	d="
M492.570526,1206.386719 
	C498.977448,1218.497925 505.062866,1230.360596 511.527527,1242.012939 
	C513.561707,1245.679321 513.486816,1248.053711 510.393005,1251.108521 
	C472.089447,1288.928955 433.882385,1326.847168 395.738403,1364.828491 
	C392.718719,1367.835327 391.259277,1367.523438 389.098969,1363.937378 
	C340.819733,1283.796631 300.111206,1199.997925 267.016785,1112.480347 
	C233.153122,1022.928589 207.521057,931.108459 190.568558,836.875427 
	C176.258820,757.332703 167.507553,677.273926 168.212494,596.330566 
	C168.405167,574.205994 176.214294,555.878113 195.107285,543.553284 
	C200.996063,539.711792 207.859970,536.995544 214.633896,534.937134 
	C289.074188,512.316833 361.573883,484.918701 431.122528,449.771515 
	C492.365234,418.821808 543.903564,376.384430 586.759155,322.951569 
	C625.985779,274.043335 659.878967,221.724167 688.163330,165.825516 
	C699.120544,144.170654 715.287354,130.430695 739.857971,128.905396 
	C747.950684,128.403000 756.450928,130.181381 764.398315,132.294891 
	C830.003540,149.741806 896.527344,160.916245 964.448975,163.828690 
	C1032.579834,166.750076 1097.616821,153.691086 1160.743408,128.672699 
	C1222.857056,104.055763 1282.341919,74.219307 1340.104370,40.785240 
	C1350.029785,35.040215 1359.711548,28.461739 1370.321411,24.397667 
	C1392.105591,16.053278 1412.452881,20.521835 1429.953979,35.712498 
	C1480.933838,79.962547 1526.111084,129.771210 1568.533081,182.122375 
	C1584.151001,201.395660 1598.960938,221.324356 1614.098022,240.985931 
	C1618.608398,246.844482 1618.536743,246.887161 1613.198486,252.242966 
	C1574.847290,290.719635 1536.500732,329.200775 1498.143066,367.670898 
	C1496.989136,368.828094 1495.728882,369.879120 1493.900269,371.541382 
	C1490.404419,366.888947 1487.136841,362.577881 1483.908081,358.237823 
	C1449.067505,311.404144 1411.360718,267.029175 1370.298706,225.516357 
	C1366.989380,222.170822 1364.628906,220.386429 1359.463013,223.291809 
	C1307.268799,252.646194 1253.606934,278.995514 1197.686890,300.563995 
	C1157.171875,316.190704 1115.864502,329.025726 1072.722534,335.203888 
	C1034.962646,340.611328 997.020386,341.308411 958.995300,339.422974 
	C908.774109,336.932770 859.245911,329.372742 810.121948,318.876617 
	C800.015320,316.717133 800.152039,316.955292 794.759583,326.237885 
	C775.250488,359.821045 754.010010,392.256989 730.565735,423.251740 
	C705.599304,456.258820 678.398926,487.216370 647.874268,515.220154 
	C611.850403,548.268982 570.788086,573.753113 527.437500,595.842773 
	C473.128052,623.516724 416.602081,645.796021 358.946350,665.373108 
	C346.766968,669.508606 348.514435,666.303589 349.259308,680.225708 
	C352.836792,747.088440 362.160858,813.182861 376.271118,878.621582 
	C397.890533,978.885254 430.317108,1075.506470 473.939911,1168.346069 
	C479.890747,1181.010864 486.234009,1193.491211 492.570526,1206.386719 
M286.103302,656.645142 
	C287.318604,655.768616 288.555969,654.920898 289.745911,654.011230 
	C304.906281,642.420837 310.793213,621.760437 304.235840,603.194702 
	C297.747375,584.824036 279.855286,572.646240 260.182373,573.210571 
	C241.389328,573.749695 224.423309,586.834656 219.027893,604.950806 
	C213.623428,623.097351 219.444778,641.591431 234.411453,653.823364 
	C248.590149,665.411316 267.792450,666.608948 286.103302,656.645142 
M331.649017,1096.680176 
	C352.204254,1096.644043 368.899139,1085.062622 375.326141,1066.381104 
	C381.599396,1048.146362 375.394958,1027.710571 359.968842,1015.798279 
	C344.626587,1003.950867 324.099792,1003.238770 307.659393,1013.983704 
	C292.302460,1024.020508 284.669281,1043.865356 289.134277,1062.145386 
	C293.880005,1081.574707 309.815857,1094.787354 331.649017,1096.680176 
M1341.950684,137.511124 
	C1342.293335,138.450012 1342.600464,139.403625 1342.983643,140.325668 
	C1350.763672,159.048553 1369.386475,169.997375 1389.934204,167.938644 
	C1408.989624,166.029449 1424.996216,150.976913 1428.675781,131.506287 
	C1432.331665,112.160736 1422.764771,92.447823 1405.254150,83.245171 
	C1389.220703,74.818901 1369.518921,76.414085 1356.024170,88.068283 
	C1340.972168,101.067360 1336.175171,117.496353 1341.950684,137.511124 
M747.890869,182.288712 
	C731.106140,187.623611 720.413879,198.771576 716.466980,215.959564 
	C711.484009,237.658859 723.701416,259.943115 744.634521,267.896606 
	C765.619324,275.869751 789.266907,267.210114 799.778137,247.211166 
	C808.690125,230.254959 807.306702,213.427658 795.779053,198.379471 
	C783.954712,182.943893 767.745972,177.781448 747.890869,182.288712 
z"/>
<path fill="#2FC1E3" opacity="1.000000" stroke="none" 
	d="
M1700.201538,1277.120605 
	C1711.863403,1224.099121 1720.767212,1171.053345 1725.682983,1117.388916 
	C1731.151489,1057.689209 1731.775269,997.985168 1726.520874,938.186523 
	C1720.100464,865.118103 1702.078491,794.741638 1678.027588,725.797729 
	C1667.169312,694.671204 1654.587402,664.144043 1642.643799,633.400818 
	C1641.528687,630.530457 1641.468506,628.534424 1643.729370,626.270020 
	C1684.467651,585.464417 1725.155151,544.608093 1765.865112,503.774261 
	C1766.431030,503.206512 1767.145874,502.787109 1768.373535,501.857452 
	C1769.436646,503.762238 1770.471558,505.361267 1771.263550,507.072784 
	C1800.271851,569.759033 1825.150879,634.029419 1845.551636,700.037109 
	C1861.560059,751.833130 1875.139771,804.186890 1883.359497,857.849731 
	C1890.612183,905.199585 1894.438354,952.822998 1895.224609,1000.698364 
	C1896.390381,1071.679565 1890.912476,1142.201538 1880.430298,1212.374634 
	C1865.198242,1314.347168 1839.756958,1413.807617 1807.119751,1511.518677 
	C1787.099976,1571.454712 1764.411011,1630.368530 1739.424194,1688.388672 
	C1716.815186,1740.887451 1692.845947,1792.784912 1665.926880,1843.219727 
	C1644.364990,1883.617188 1621.930908,1923.557861 1599.343628,1963.394653 
	C1591.153198,1977.840088 1582.422974,1992.216309 1572.099487,2005.156372 
	C1558.705444,2021.945068 1539.843384,2027.970947 1518.786133,2024.429443 
	C1468.154907,2015.914551 1418.197876,2004.228271 1368.486572,1991.428101 
	C1305.200073,1975.132324 1242.716675,1956.202637 1180.936646,1934.930420 
	C1122.931274,1914.957764 1065.793823,1892.728394 1009.647034,1868.019531 
	C957.170227,1844.925781 905.721680,1819.718018 855.497803,1792.012329 
	C810.103882,1766.970703 765.956787,1739.927856 723.107178,1710.763672 
	C713.061279,1703.926514 703.407043,1696.508057 693.278503,1689.801025 
	C688.878235,1686.887207 689.668701,1685.127686 692.856567,1681.948975 
	C725.186035,1649.712036 757.394104,1617.353516 789.634460,1585.027222 
	C794.105225,1580.544312 798.727539,1576.197754 802.972839,1571.510254 
	C805.638672,1568.566528 807.797668,1568.506958 811.064270,1570.649292 
	C831.119995,1583.802612 850.840271,1597.556030 871.543640,1609.613281 
	C905.208801,1629.219238 939.160645,1648.408691 973.685547,1666.445190 
	C1027.177856,1694.390747 1082.567749,1718.275391 1138.800903,1740.170532 
	C1217.131836,1770.669800 1296.993164,1796.491211 1378.337036,1817.644653 
	C1406.702393,1825.021118 1435.337036,1831.360962 1463.844971,1838.189819 
	C1474.225098,1840.676392 1473.023682,1839.724976 1476.716309,1832.822266 
	C1500.049194,1789.204712 1524.100464,1745.953125 1546.542114,1701.882080 
	C1571.267700,1653.325684 1592.977661,1603.332642 1613.300171,1552.757446 
	C1649.274048,1463.232300 1679.008057,1371.743408 1700.201538,1277.120605 
M1494.259644,1881.654175 
	C1492.144897,1882.628906 1489.972168,1883.495972 1487.924316,1884.595337 
	C1470.532104,1893.932373 1461.062012,1914.769165 1465.556152,1933.709717 
	C1470.463989,1954.393799 1487.663330,1968.591919 1508.406860,1969.083008 
	C1528.972412,1969.569824 1547.245605,1956.487793 1552.759644,1937.020264 
	C1557.564209,1920.057739 1553.872559,1904.846680 1541.496094,1892.388916 
	C1528.471680,1879.278564 1512.605957,1876.152466 1494.259644,1881.654175 
M1696.638672,1437.184814 
	C1695.548096,1438.860474 1694.409058,1440.506836 1693.374390,1442.216309 
	C1680.702881,1463.150146 1688.217163,1491.953735 1709.499756,1504.077637 
	C1732.266479,1517.046875 1759.958008,1509.082153 1772.143555,1486.059570 
	C1783.673706,1464.275391 1774.307495,1435.730957 1752.260010,1424.846191 
	C1733.620728,1415.644287 1711.092041,1419.694214 1696.638672,1437.184814 
M1808.637939,932.850891 
	C1789.962769,934.559692 1776.899902,944.129456 1769.981812,961.451904 
	C1761.148438,983.569458 1771.742920,1008.896362 1793.538818,1018.847595 
	C1815.048218,1028.667969 1840.220337,1020.229675 1851.450073,999.300781 
	C1867.872070,968.695557 1844.826904,931.135376 1808.637939,932.850891 
M1015.837280,1734.190552 
	C1014.521423,1734.385254 1013.192871,1734.517578 1011.891663,1734.783813 
	C991.845154,1738.888428 977.379761,1755.269897 975.934143,1775.480591 
	C974.476196,1795.862915 986.656250,1814.726440 1005.681885,1821.552002 
	C1024.837646,1828.424316 1045.720703,1822.072876 1057.390381,1805.133789 
	C1067.602417,1790.310303 1068.725830,1774.239258 1060.317505,1758.353516 
	C1051.206055,1741.139771 1036.238647,1733.275024 1015.837280,1734.190552 
z"/>
<path fill="#DDD7D7" opacity="1.000000" stroke="none" 
	d="
M695.411865,1578.412842 
	C566.487488,1707.825806 437.795746,1836.971436 309.216003,1966.228516 
	C305.266571,1970.198730 301.390808,1971.925293 295.736267,1971.910522 
	C250.572617,1971.792725 205.408112,1972.001953 160.243866,1972.109985 
	C158.181259,1972.114990 156.118607,1972.110718 154.055984,1972.110718 
	C153.895950,1971.664307 153.735931,1971.217896 153.575897,1970.771484 
	C154.742828,1969.492432 155.862549,1968.166260 157.083328,1966.940796 
	C267.517944,1856.096802 377.970642,1745.270752 488.399231,1634.420654 
	C604.001465,1518.377075 719.577820,1402.307617 835.170837,1286.254761 
	C955.467834,1165.479126 1075.751221,1044.689819 1196.114380,923.980042 
	C1204.569580,915.500549 1210.852295,906.202515 1210.212036,893.763550 
	C1209.463257,879.218018 1202.553589,868.243408 1189.151123,862.354675 
	C1175.433350,856.327454 1161.970337,857.959412 1151.052368,868.351929 
	C1133.073120,885.465759 1115.801880,903.324829 1098.278076,920.915649 
	C942.441101,1077.348999 786.610657,1233.788940 630.785217,1390.233765 
	C487.546051,1534.042358 344.319000,1677.862915 201.078186,1821.669678 
	C165.325455,1857.563965 129.541748,1893.427368 93.764183,1929.296875 
	C92.493912,1930.570435 91.136871,1931.757324 89.001846,1933.747437 
	C88.724495,1931.530273 88.417091,1930.211792 88.415123,1928.892822 
	C88.338364,1877.395508 88.235428,1825.897949 88.397598,1774.401245 
	C88.405640,1771.847900 90.185707,1768.731934 92.092613,1766.834839 
	C159.546661,1699.724243 227.123260,1632.736816 294.664886,1565.714233 
	C454.236481,1407.368530 613.798645,1249.013428 773.365295,1090.662842 
	C896.969055,968.001160 1020.573853,845.340759 1144.178223,722.679871 
	C1148.963501,717.931152 1148.966309,717.929565 1153.801025,722.746460 
	C1218.131226,786.839172 1282.461182,850.932251 1346.789917,915.026489 
	C1351.525391,919.744690 1351.524292,919.752563 1347.012451,924.281921 
	C1129.895630,1142.242310 912.778320,1360.202148 695.411865,1578.412842 
z"/>
<path fill="#BB3232" opacity="1.000000" stroke="none" 
	d="
M1461.418945,1573.567139 
	C1472.803711,1599.364868 1483.986938,1624.837280 1495.333374,1650.236694 
	C1496.831299,1653.589722 1496.866211,1656.375854 1495.177246,1659.657227 
	C1477.798950,1693.418457 1460.506104,1727.223999 1443.268188,1761.057251 
	C1441.237427,1765.042969 1438.890625,1766.497070 1434.162598,1765.179688 
	C1397.423706,1754.942505 1360.590942,1745.040894 1323.869751,1734.741943 
	C1321.277954,1734.014893 1318.356445,1731.390991 1317.247681,1728.908203 
	C1299.247314,1688.599243 1281.534912,1648.161865 1263.716797,1607.771362 
	C1246.705322,1569.209229 1229.625122,1530.677246 1212.615479,1492.114258 
	C1195.942261,1454.313965 1179.330078,1416.486572 1162.671875,1378.679443 
	C1146.281982,1341.481323 1129.933716,1304.264526 1113.368652,1267.144531 
	C1111.600708,1263.182617 1112.407104,1260.873535 1115.265259,1258.023193 
	C1148.068359,1225.309814 1180.781860,1192.506226 1213.480957,1159.688843 
	C1226.886963,1146.234375 1240.197510,1132.684937 1253.561890,1119.188965 
	C1254.941650,1117.795532 1256.391968,1116.471802 1258.428589,1114.523682 
	C1259.620605,1116.732544 1260.635498,1118.339966 1261.395142,1120.060181 
	C1296.324585,1199.153931 1331.246704,1278.250732 1366.137207,1357.361694 
	C1397.866821,1429.305664 1429.559326,1501.265991 1461.418945,1573.567139 
z"/>
<path fill="#DEAD28" opacity="1.000000" stroke="none" 
	d="
M1431.973145,899.026611 
	C1286.629272,754.201294 1141.522949,609.638367 996.501038,464.990906 
	C992.223816,460.724701 987.713745,457.872253 981.723694,456.611145 
	C970.658813,454.281677 959.733704,451.288544 947.519958,448.267548 
	C949.507812,447.392456 950.502441,446.700714 951.583557,446.516418 
	C970.117126,443.358215 988.662781,440.271637 1007.202637,437.150574 
	C1023.285583,434.443115 1039.382080,431.810028 1055.432495,428.921356 
	C1059.342529,428.217621 1061.918213,429.358154 1064.666992,432.100098 
	C1173.811523,540.973877 1283.023560,649.780212 1392.235596,758.586304 
	C1474.411255,840.456604 1556.580933,922.332764 1638.847900,1004.111389 
	C1642.123657,1007.367737 1643.329346,1010.575317 1642.967407,1015.119324 
	C1639.728638,1055.803955 1636.669434,1096.502808 1633.544800,1137.196655 
	C1633.484131,1137.988159 1633.271484,1138.767944 1632.117920,1139.914917 
	C1631.532593,1138.790405 1630.784668,1137.720337 1630.386230,1136.533081 
	C1624.241699,1118.225708 1618.268677,1099.859253 1611.917847,1081.624146 
	C1610.767212,1078.320557 1608.573975,1075.078003 1606.081909,1072.588257 
	C1548.194092,1014.752502 1490.198608,957.024719 1431.973145,899.026611 
z"/>
<path fill="#E0AE29" opacity="1.000000" stroke="none" 
	d="
M1728.247559,280.999939 
	C1728.153442,217.180710 1728.055054,153.861465 1727.970825,90.542229 
	C1727.955811,79.208771 1730.856934,76.283302 1742.076416,76.254776 
	C1815.893188,76.067078 1889.709961,75.883469 1963.526733,75.706024 
	C1974.895142,75.678696 1978.185913,78.895218 1978.192993,90.088013 
	C1978.240234,164.071609 1978.277832,238.055222 1978.307861,312.038818 
	C1978.312378,323.116028 1975.502686,325.914032 1964.427979,325.926788 
	C1890.611084,326.011780 1816.794067,326.092743 1742.977173,326.170013 
	C1730.912476,326.182648 1728.354614,323.617371 1728.315796,311.493591 
	C1728.283813,301.495758 1728.270020,291.497833 1728.247559,280.999939 
z"/>
<path fill="#BA3232" opacity="1.000000" stroke="none" 
	d="
M1674.380859,366.582947 
	C1687.713257,382.753052 1704.219971,393.500977 1724.649292,396.333557 
	C1736.934326,398.036896 1749.589355,397.075867 1762.078491,397.298309 
	C1764.199707,397.336090 1766.322144,397.303650 1768.444092,397.303650 
	C1768.783813,397.841980 1769.123535,398.380341 1769.463257,398.918671 
	C1663.844482,504.980835 1558.225830,611.042969 1452.340820,717.372498 
	C1450.647583,715.850708 1449.391724,714.820557 1448.246948,713.679077 
	C1417.211548,682.731079 1386.246338,651.712280 1355.082642,620.893982 
	C1351.455078,617.306763 1352.118652,615.325806 1355.338623,612.110229 
	C1398.968872,568.539551 1442.510132,524.879578 1486.029175,481.197632 
	C1541.187622,425.832428 1596.304688,370.426056 1651.446045,315.043915 
	C1652.803345,313.680634 1654.236816,312.393280 1656.832764,309.936920 
	C1656.507935,331.635590 1661.740479,350.156189 1674.380859,366.582947 
z"/>
<path fill="#BA3232" opacity="1.000000" stroke="none" 
	d="
M849.437744,497.677551 
	C876.314270,504.372131 902.793823,510.951111 929.272888,517.532166 
	C933.465698,518.574219 937.605103,520.150146 941.858276,520.563904 
	C950.784607,521.432251 956.961548,526.300659 962.987915,532.457581 
	C981.989136,551.870483 1001.172424,571.116699 1020.704651,589.993286 
	C1029.270996,598.272034 1035.671753,607.526550 1040.288818,618.514832 
	C1049.838989,641.244019 1059.974121,663.731018 1070.133545,686.197754 
	C1072.308105,691.006653 1071.803711,694.074280 1067.913574,697.901611 
	C1036.670166,728.640747 1005.691101,759.648560 974.593201,790.535889 
	C959.459412,805.567261 944.247620,820.520142 929.059814,835.497131 
	C927.903442,836.637451 926.656433,837.685913 924.773376,839.391235 
	C921.121826,831.280823 917.690918,823.791199 914.366455,816.254639 
	C897.490479,777.997314 880.650330,739.724182 863.781921,701.463562 
	C844.560242,657.865540 825.311951,614.279175 806.094482,570.679321 
	C793.596741,542.324890 781.080078,513.978333 768.775208,485.540253 
	C767.960876,483.658295 768.003845,480.391022 769.128784,478.846771 
	C777.258362,467.687042 785.763611,456.800842 794.175415,445.847626 
	C794.630676,445.254822 795.314758,444.837738 796.074036,444.181854 
	C797.213623,449.875214 797.713135,455.358734 799.430908,460.429535 
	C806.457458,481.171661 822.148254,491.626556 842.767761,495.947815 
	C844.878784,496.390259 846.950562,497.019867 849.437744,497.677551 
z"/>
<path fill="#B93131" opacity="1.000000" stroke="none" 
	d="
M599.662720,1040.724609 
	C672.202393,1008.711975 744.398193,976.859314 816.593994,945.006592 
	C816.915161,945.403320 817.236328,945.800049 817.557495,946.196777 
	C732.778992,1030.374756 648.000427,1114.552856 562.689026,1199.260010 
	C560.625427,1195.844971 558.964783,1193.568237 557.780457,1191.065796 
	C541.751465,1157.200073 525.786682,1123.303955 509.818970,1089.409302 
	C509.323395,1088.357300 509.098389,1087.163818 508.522034,1086.166504 
	C506.637177,1082.904785 507.707275,1081.104370 511.022705,1079.666992 
	C527.985962,1072.312866 544.884888,1064.810303 561.809021,1057.365967 
	C574.310181,1051.867188 586.815430,1046.378052 599.662720,1040.724609 
z"/>
<path fill="#B93131" opacity="1.000000" stroke="none" 
	d="
M1512.380615,777.618896 
	C1509.066772,774.563843 1506.003052,771.758850 1503.365356,769.344055 
	C1533.266479,739.665527 1562.595459,710.554932 1591.924438,681.444336 
	C1591.669189,680.995972 1591.413940,680.547607 1591.158691,680.099243 
	C1591.761963,680.986206 1592.592651,681.793457 1592.935547,682.771667 
	C1605.758667,719.348083 1618.523071,755.944946 1631.348877,792.520325 
	C1632.312012,795.266541 1631.636108,796.867493 1628.972412,798.038574 
	C1607.797485,807.348938 1586.639771,816.699158 1565.508057,826.107178 
	C1562.018433,827.660828 1560.235474,825.319397 1558.259033,823.352600 
	C1543.036133,808.204773 1527.837036,793.033203 1512.380615,777.618896 
z"/>
<path fill="#792020" opacity="1.000000" stroke="none" 
	d="
M841.789917,390.117554 
	C843.550293,390.549561 844.915039,390.917999 846.279846,391.286438 
	C846.282227,391.609955 846.284668,391.933472 846.287048,392.256989 
	C840.216003,393.707031 834.144958,395.157074 827.981812,396.629120 
	C829.278809,389.023224 831.882446,387.785309 841.789917,390.117554 
z"/>
<path fill="#010404" opacity="1.000000" stroke="none" 
	d="
M285.789734,656.826660 
	C267.792450,666.608948 248.590149,665.411316 234.411453,653.823364 
	C219.444778,641.591431 213.623428,623.097351 219.027893,604.950806 
	C224.423309,586.834656 241.389328,573.749695 260.182373,573.210571 
	C279.855286,572.646240 297.747375,584.824036 304.235840,603.194702 
	C310.793213,621.760437 304.906281,642.420837 289.745911,654.011230 
	C288.555969,654.920898 287.318604,655.768616 285.789734,656.826660 
z"/>
<path fill="#010405" opacity="1.000000" stroke="none" 
	d="
M331.198608,1096.664185 
	C309.815857,1094.787354 293.880005,1081.574707 289.134277,1062.145386 
	C284.669281,1043.865356 292.302460,1024.020508 307.659393,1013.983704 
	C324.099792,1003.238770 344.626587,1003.950867 359.968842,1015.798279 
	C375.394958,1027.710571 381.599396,1048.146362 375.326141,1066.381104 
	C368.899139,1085.062622 352.204254,1096.644043 331.198608,1096.664185 
z"/>
<path fill="#010404" opacity="1.000000" stroke="none" 
	d="
M1341.823486,137.133682 
	C1336.175171,117.496353 1340.972168,101.067360 1356.024170,88.068283 
	C1369.518921,76.414085 1389.220703,74.818901 1405.254150,83.245171 
	C1422.764771,92.447823 1432.331665,112.160736 1428.675781,131.506287 
	C1424.996216,150.976913 1408.989624,166.029449 1389.934204,167.938644 
	C1369.386475,169.997375 1350.763672,159.048553 1342.983643,140.325668 
	C1342.600464,139.403625 1342.293335,138.450012 1341.823486,137.133682 
z"/>
<path fill="#010404" opacity="1.000000" stroke="none" 
	d="
M748.282959,182.176941 
	C767.745972,177.781448 783.954712,182.943893 795.779053,198.379471 
	C807.306702,213.427658 808.690125,230.254959 799.778137,247.211166 
	C789.266907,267.210114 765.619324,275.869751 744.634521,267.896606 
	C723.701416,259.943115 711.484009,237.658859 716.466980,215.959564 
	C720.413879,198.771576 731.106140,187.623611 748.282959,182.176941 
z"/>
<path fill="#010404" opacity="1.000000" stroke="none" 
	d="
M1494.629150,1881.519043 
	C1512.605957,1876.152466 1528.471680,1879.278564 1541.496094,1892.388916 
	C1553.872559,1904.846680 1557.564209,1920.057739 1552.759644,1937.020264 
	C1547.245605,1956.487793 1528.972412,1969.569824 1508.406860,1969.083008 
	C1487.663330,1968.591919 1470.463989,1954.393799 1465.556152,1933.709717 
	C1461.062012,1914.769165 1470.532104,1893.932373 1487.924316,1884.595337 
	C1489.972168,1883.495972 1492.144897,1882.628906 1494.629150,1881.519043 
z"/>
<path fill="#010404" opacity="1.000000" stroke="none" 
	d="
M1696.868896,1436.912598 
	C1711.092041,1419.694214 1733.620728,1415.644287 1752.260010,1424.846191 
	C1774.307495,1435.730957 1783.673706,1464.275391 1772.143555,1486.059570 
	C1759.958008,1509.082153 1732.266479,1517.046875 1709.499756,1504.077637 
	C1688.217163,1491.953735 1680.702881,1463.150146 1693.374390,1442.216309 
	C1694.409058,1440.506836 1695.548096,1438.860474 1696.868896,1436.912598 
z"/>
<path fill="#010404" opacity="1.000000" stroke="none" 
	d="
M1809.113525,932.822083 
	C1844.826904,931.135376 1867.872070,968.695557 1851.450073,999.300781 
	C1840.220337,1020.229675 1815.048218,1028.667969 1793.538818,1018.847595 
	C1771.742920,1008.896362 1761.148438,983.569458 1769.981812,961.451904 
	C1776.899902,944.129456 1789.962769,934.559692 1809.113525,932.822083 
z"/>
<path fill="#010404" opacity="1.000000" stroke="none" 
	d="
M1016.295776,1734.149170 
	C1036.238647,1733.275024 1051.206055,1741.139771 1060.317505,1758.353516 
	C1068.725830,1774.239258 1067.602417,1790.310303 1057.390381,1805.133789 
	C1045.720703,1822.072876 1024.837646,1828.424316 1005.681885,1821.552002 
	C986.656250,1814.726440 974.476196,1795.862915 975.934143,1775.480591 
	C977.379761,1755.269897 991.845154,1738.888428 1011.891663,1734.783813 
	C1013.192871,1734.517578 1014.521423,1734.385254 1016.295776,1734.149170 
z"/>
</svg>